<svg id="svg" xmlns="http://www.w3.org/2000/svg" xmlns:xlink="http://www.w3.org/1999/xlink" width="400" height="400" viewBox="0, 0, 400,400"><g id="svgg"><path id="path0" d="M39.167 62.673 C 32.727 65.149,25.061 72.915,22.627 79.430 C 20.857 84.167,20.821 85.090,21.033 120.247 L 21.250 156.217 27.891 140.609 L 34.533 125.000 47.134 125.000 L 59.735 125.000 62.159 131.040 L 64.583 137.079 64.828 131.040 L 65.073 125.000 79.503 125.000 L 93.933 125.000 97.936 133.750 C 102.790 144.359,102.132 144.360,106.574 133.742 L 110.231 125.000 160.774 125.000 C 203.012 125.000,212.105 125.205,216.116 126.250 C 218.755 126.938,221.084 127.500,221.291 127.500 C 221.497 127.500,221.667 126.938,221.667 126.250 C 221.667 125.194,223.611 125.000,234.167 125.000 L 246.667 125.000 246.667 127.500 C 246.667 130.518,246.229 130.501,252.191 127.708 L 257.083 125.417 280.898 125.152 L 304.713 124.888 307.288 130.569 L 309.864 136.250 309.932 130.625 L 310.000 125.000 323.704 125.000 L 337.408 125.000 340.783 130.625 L 344.158 136.250 344.162 130.625 L 344.167 125.000 356.667 125.000 L 369.167 125.000 369.167 153.750 L 369.167 182.500 356.020 182.500 L 342.872 182.500 339.145 176.204 L 335.417 169.907 335.173 176.204 L 334.930 182.500 318.401 182.500 L 301.873 182.500 299.895 177.931 L 297.917 173.362 292.028 173.348 L 286.140 173.333 284.211 177.987 L 282.283 182.640 268.850 182.362 C 256.155 182.099,255.176 181.959,251.042 179.826 L 246.667 177.569 246.667 180.034 L 246.667 182.500 225.833 182.500 L 205.000 182.500 205.000 175.000 L 205.000 167.500 202.083 167.500 L 199.167 167.500 199.167 175.000 L 199.167 182.500 156.667 182.500 L 114.167 182.500 114.133 180.208 L 114.100 177.917 112.857 180.208 L 111.613 182.500 102.146 182.500 L 92.678 182.500 91.382 179.375 L 90.086 176.250 90.043 179.392 L 90.000 182.535 73.238 182.309 L 56.475 182.083 54.696 177.709 L 52.917 173.335 46.972 173.334 L 41.027 173.333 39.167 177.917 L 37.306 182.500 29.051 182.500 L 20.795 182.500 21.023 250.208 L 21.250 317.917 23.579 322.658 C 26.576 328.763,33.515 335.158,39.617 337.441 C 44.221 339.164,44.499 339.167,200.000 339.167 L 355.771 339.167 360.594 337.365 C 367.254 334.876,374.876 327.254,377.365 320.594 C 379.004 316.207,380.393 254.167,378.852 254.167 C 378.679 254.167,377.085 254.805,375.310 255.584 C 370.361 257.759,337.500 258.333,337.500 256.245 C 337.500 255.205,337.107 254.991,336.042 255.452 C 332.456 257.002,322.711 257.364,282.708 257.430 L 240.000 257.500 240.000 249.583 L 240.000 241.667 237.083 241.667 L 234.167 241.667 234.167 249.583 L 234.167 257.500 221.667 257.500 L 209.167 257.500 209.167 248.312 L 209.167 239.124 206.572 240.466 C 205.145 241.204,200.472 242.218,196.187 242.719 L 188.396 243.631 188.156 250.357 L 187.917 257.083 172.791 257.310 L 157.666 257.537 152.720 252.057 L 147.775 246.577 142.666 252.039 L 137.557 257.500 112.112 257.500 L 86.667 257.500 86.667 228.333 L 86.667 199.167 112.446 199.167 L 138.226 199.167 143.071 204.665 L 147.917 210.164 153.037 204.665 L 158.157 199.167 177.203 199.184 C 195.066 199.200,202.770 199.924,207.708 202.050 C 208.848 202.541,209.167 202.274,209.167 200.828 L 209.167 198.978 229.375 199.336 C 245.441 199.621,250.208 199.967,252.631 201.022 C 255.526 202.284,255.699 202.271,256.094 200.758 C 256.764 198.199,305.000 198.284,305.000 200.845 C 305.000 202.475,305.089 202.483,308.125 201.133 C 313.515 198.738,345.833 198.363,345.833 200.696 C 345.833 202.367,345.920 202.378,348.958 201.061 C 351.268 200.060,355.622 199.611,365.647 199.338 L 379.210 198.970 378.980 140.527 L 378.750 82.083 376.312 77.269 C 373.434 71.586,367.343 65.605,361.848 63.066 L 357.917 61.250 200.833 61.081 L 43.750 60.911 39.167 62.673 M39.295 134.792 C 38.089 137.095,21.667 175.662,21.667 176.191 C 21.667 176.453,24.017 176.667,26.889 176.667 L 32.112 176.667 34.098 171.667 L 36.084 166.667 46.854 166.667 L 57.625 166.667 59.782 171.667 L 61.940 176.667 72.203 176.667 L 82.465 176.667 82.691 159.792 L 82.917 142.917 90.417 159.819 L 97.917 176.721 102.405 176.486 L 106.893 176.250 114.071 160.000 L 121.250 143.750 121.476 160.208 L 121.702 176.667 127.115 176.667 L 132.528 176.667 132.306 155.208 L 132.083 133.750 123.678 133.514 L 115.274 133.278 109.174 147.899 C 105.820 155.940,102.852 162.297,102.579 162.026 C 102.306 161.754,99.205 155.281,95.687 147.641 L 89.290 133.750 80.910 133.513 L 72.529 133.275 72.306 153.776 L 72.083 174.277 63.407 153.805 L 54.730 133.333 47.394 133.333 C 41.254 133.333,39.934 133.571,39.295 134.792 M140.000 155.000 L 140.000 176.667 157.083 176.667 L 174.167 176.667 174.167 172.083 L 174.167 167.500 162.083 167.500 L 150.000 167.500 150.000 163.333 L 150.000 159.167 161.667 159.167 L 173.333 159.167 173.333 155.024 L 173.333 150.880 161.875 150.649 L 150.417 150.417 150.163 146.458 L 149.909 142.500 162.038 142.500 L 174.167 142.500 174.167 137.917 L 174.167 133.333 157.083 133.333 L 140.000 133.333 140.000 155.000 M181.667 155.000 L 181.667 176.667 186.667 176.667 L 191.667 176.667 191.667 168.674 L 191.667 160.682 200.492 160.966 C 211.561 161.322,212.500 162.101,212.500 170.926 L 212.500 176.667 217.583 176.667 L 222.666 176.667 222.375 169.098 C 222.091 161.734,222.009 161.462,219.324 159.063 L 216.564 156.598 219.043 154.283 C 222.445 151.104,223.784 145.900,222.346 141.452 C 220.201 134.822,215.114 133.346,194.375 133.338 L 181.667 133.333 181.667 155.000 M229.167 155.000 L 229.167 176.667 234.167 176.667 L 239.167 176.667 239.167 155.000 L 239.167 133.333 234.167 133.333 L 229.167 133.333 229.167 155.000 M258.056 134.528 C 249.646 136.789,245.766 142.236,245.164 152.626 C 244.183 169.578,250.013 175.694,267.887 176.466 L 277.083 176.864 279.084 171.765 L 281.084 166.667 291.854 166.667 L 302.625 166.667 304.782 171.667 L 306.940 176.667 317.220 176.667 L 327.500 176.667 327.500 160.667 C 327.500 149.170,327.754 144.921,328.404 145.570 C 328.901 146.067,333.326 153.174,338.237 161.362 L 347.167 176.250 354.417 176.491 L 361.667 176.732 361.667 155.032 L 361.667 133.333 356.685 133.333 L 351.704 133.333 351.477 148.471 L 351.250 163.609 342.083 148.475 L 332.917 133.340 325.208 133.337 L 317.500 133.333 317.466 153.958 L 317.432 174.583 308.623 153.928 L 299.814 133.273 292.250 133.512 L 284.685 133.750 277.481 150.417 L 270.278 167.083 265.897 167.338 C 258.666 167.758,255.000 163.762,255.000 155.460 C 255.000 145.981,258.895 142.500,269.501 142.500 L 275.833 142.500 275.833 137.917 L 275.833 133.333 268.958 133.390 C 265.177 133.421,260.271 133.933,258.056 134.528 M54.167 158.102 C 54.167 158.229,50.979 158.333,47.083 158.333 C 43.188 158.333,40.000 158.156,40.000 157.938 C 40.000 157.721,41.164 154.627,42.587 151.063 C 44.010 147.499,45.539 143.646,45.984 142.500 C 46.652 140.783,54.167 155.112,54.167 158.102 M295.833 149.582 C 297.666 154.088,299.167 157.901,299.167 158.054 C 299.167 158.208,295.979 158.333,292.083 158.333 C 288.188 158.333,285.000 158.153,285.000 157.933 C 285.000 157.029,291.934 140.823,292.205 141.094 C 292.366 141.255,293.999 145.075,295.833 149.582 M210.402 143.855 C 215.160 148.612,210.232 152.470,199.375 152.488 L 191.667 152.500 191.667 147.500 L 191.667 142.500 200.357 142.500 C 207.269 142.500,209.325 142.777,210.402 143.855 M94.167 229.583 L 94.167 250.833 114.508 250.833 L 134.850 250.833 141.495 243.730 L 148.141 236.627 154.590 243.730 L 161.038 250.833 170.936 250.833 L 180.833 250.833 180.833 243.853 L 180.833 236.872 190.636 236.523 C 205.970 235.976,211.630 232.083,211.630 222.083 C 211.630 210.271,207.340 208.333,181.195 208.334 L 161.250 208.334 155.153 215.000 C 147.785 223.056,149.038 223.051,142.038 215.057 L 136.250 208.447 115.208 208.390 L 94.167 208.333 94.167 229.583 M216.667 229.583 L 216.667 250.833 221.635 250.833 L 226.604 250.833 226.844 243.125 L 227.083 235.417 235.700 235.417 C 246.536 235.417,247.500 236.207,247.500 245.092 L 247.500 250.833 252.500 250.833 L 257.500 250.833 257.500 244.638 C 257.500 237.153,256.610 234.535,253.451 232.722 L 251.054 231.346 253.768 228.787 C 260.022 222.889,259.409 213.676,252.532 210.208 C 249.059 208.457,247.752 208.333,232.740 208.333 L 216.667 208.333 216.667 229.583 M264.167 229.583 L 264.167 250.833 281.250 250.833 L 298.333 250.833 298.333 246.667 L 298.333 242.500 286.250 242.500 L 274.167 242.500 274.167 237.917 L 274.167 233.333 285.833 233.333 L 297.500 233.333 297.500 229.167 L 297.500 225.000 285.833 225.000 L 274.167 225.000 274.167 220.833 L 274.167 216.667 286.250 216.667 L 298.333 216.667 298.333 212.500 L 298.333 208.333 281.250 208.333 L 264.167 208.333 264.167 229.583 M309.987 209.886 C 306.080 211.975,303.974 215.783,303.974 220.761 C 303.974 229.441,307.763 232.480,319.710 233.384 C 327.950 234.007,330.000 234.897,330.000 237.852 C 330.000 241.275,328.615 241.667,316.500 241.667 L 305.000 241.667 305.000 246.307 L 305.000 250.948 318.125 250.682 C 336.215 250.316,340.755 247.631,340.815 237.265 C 340.864 228.782,336.986 225.807,324.919 225.071 C 316.655 224.567,314.167 223.577,314.167 220.791 C 314.167 217.291,316.195 216.667,327.560 216.667 L 338.333 216.667 338.333 212.500 L 338.333 208.333 325.612 208.333 C 314.797 208.333,312.456 208.566,309.987 209.886 M350.390 209.998 C 345.976 212.183,344.166 215.373,344.170 220.962 C 344.176 229.822,347.248 232.244,360.000 233.440 C 369.135 234.298,371.983 236.073,369.714 239.495 C 368.635 241.122,367.688 241.267,356.775 241.481 L 345.000 241.712 345.000 246.273 L 345.000 250.833 357.292 250.797 C 377.272 250.737,379.332 249.444,378.986 237.182 L 378.750 228.839 375.938 227.199 C 373.897 226.009,370.901 225.424,365.023 225.071 C 356.641 224.567,354.167 223.588,354.167 220.779 C 354.167 217.542,357.222 216.667,368.519 216.667 L 379.167 216.667 379.167 212.500 L 379.167 208.333 366.458 208.334 C 355.437 208.335,353.304 208.555,350.390 209.998 M170.800 229.792 L 170.767 247.083 164.531 240.417 C 161.101 236.750,157.554 232.756,156.650 231.542 L 155.006 229.334 162.710 220.917 C 166.947 216.288,170.508 212.500,170.623 212.500 C 170.739 212.500,170.818 220.281,170.800 229.792 M136.131 222.997 L 141.718 229.326 136.132 235.288 C 128.864 243.045,130.163 242.580,116.491 242.315 L 104.583 242.083 104.331 237.708 L 104.080 233.333 115.373 233.333 L 126.667 233.333 126.667 229.167 L 126.667 225.000 115.417 225.000 L 104.167 225.000 104.167 220.833 L 104.167 216.667 117.356 216.667 L 130.544 216.667 136.131 222.997 M198.981 217.964 C 201.441 219.687,201.494 224.144,199.080 226.328 C 197.612 227.657,196.021 227.915,189.289 227.916 L 181.250 227.917 181.004 222.292 L 180.757 216.667 188.943 216.667 C 195.003 216.667,197.610 217.004,198.981 217.964 M245.362 217.773 C 251.138 221.997,245.650 226.667,234.908 226.667 L 226.667 226.667 226.667 221.667 L 226.667 216.667 235.257 216.667 C 241.084 216.667,244.335 217.023,245.362 217.773 " stroke="none" fill="#000000" fill-rule="evenodd"></path></g></svg>