<svg id="svg" xmlns="http://www.w3.org/2000/svg" xmlns:xlink="http://www.w3.org/1999/xlink" width="400" height="96.55172413793103" viewBox="0, 0, 400,96.55172413793103"><g id="svgg"><path id="path0" d="M36.304 3.087 C 7.540 10.822,-6.773 43.728,7.116 70.188 C 19.604 93.981,52.582 102.334,74.288 87.202 C 84.401 80.153,77.998 70.950,67.577 77.558 C 44.004 92.508,13.793 76.060,13.793 48.276 C 13.793 20.334,43.871 3.959,67.577 18.993 C 72.319 22.000,75.190 22.224,77.637 19.777 C 87.180 10.233,56.218 -2.269,36.304 3.087 M96.155 18.065 C 94.257 20.162,94.632 23.127,97.905 31.897 C 100.033 37.598,100.318 39.533,100.318 48.276 C 100.318 57.018,100.033 58.954,97.905 64.655 C 93.599 76.195,94.246 80.172,100.431 80.172 C 107.711 80.172,114.043 58.743,112.021 40.947 C 109.949 22.711,102.141 11.451,96.155 18.065 M356.647 16.916 C 356.310 17.253,356.034 30.806,356.034 47.034 C 356.034 79.635,355.659 77.586,361.638 77.586 C 367.358 77.586,367.241 77.885,367.241 63.242 C 367.241 45.251,369.106 41.092,377.173 41.092 C 385.185 41.092,387.057 45.413,387.064 63.916 C 387.069 77.813,386.977 77.586,392.672 77.586 C 398.438 77.586,398.276 78.043,398.271 61.761 C 398.265 44.373,397.606 41.345,392.774 36.513 C 386.968 30.706,377.183 29.421,370.193 33.545 L 367.299 35.253 367.055 26.032 L 366.810 16.810 362.035 16.557 C 359.408 16.418,356.984 16.580,356.647 16.916 M42.538 18.961 C 15.294 24.660,10.291 62.219,35.090 74.870 C 53.463 84.243,76.342 71.556,78.210 50.958 C 78.910 43.240,77.168 42.241,63.007 42.241 C 50.047 42.241,48.276 42.967,48.276 48.276 C 48.276 53.096,50.400 54.310,58.835 54.310 L 65.562 54.310 64.290 56.769 C 55.905 72.984,30.747 66.559,30.747 48.202 C 30.747 34.983,45.061 26.207,56.757 32.255 C 62.004 34.969,67.241 32.832,67.241 27.976 C 67.241 21.991,52.962 16.780,42.538 18.961 M155.071 20.156 C 129.273 29.375,128.654 66.291,154.137 75.898 C 172.170 82.698,191.683 71.310,194.021 52.621 C 195.188 43.293,194.894 43.101,179.506 43.117 C 164.588 43.132,164.462 43.181,164.818 48.790 L 165.086 53.017 173.971 53.263 C 183.952 53.540,184.259 53.905,179.665 60.041 C 169.797 73.221,146.561 64.963,146.561 48.276 C 146.561 32.315,167.613 23.970,178.383 35.662 C 180.988 38.490,182.377 38.504,186.438 35.745 C 197.623 28.144,170.475 14.651,155.071 20.156 M218.761 20.222 C 187.415 32.206,195.744 77.155,229.310 77.155 C 245.313 77.155,259.561 65.846,250.382 60.430 C 246.245 57.990,244.736 58.144,241.756 61.313 C 228.951 74.930,206.985 61.040,211.997 42.496 C 215.383 29.966,232.803 25.718,241.756 35.239 C 244.736 38.407,245.512 38.496,250.034 36.189 C 263.425 29.358,234.068 14.370,218.761 20.222 M82.955 26.061 C 81.878 26.580,80.768 27.918,80.487 29.035 C 79.956 31.153,80.079 31.884,82.281 39.628 C 83.980 45.606,83.980 50.945,82.281 56.924 C 81.544 59.517,80.724 62.504,80.459 63.562 C 79.059 69.154,84.259 73.317,88.632 70.106 C 100.416 61.451,95.100 20.207,82.955 26.061 M274.132 30.978 C 251.553 37.846,252.576 72.841,275.494 77.599 C 280.674 78.675,288.400 77.120,290.510 74.578 C 292.011 72.769,292.674 72.940,293.809 75.431 C 294.658 77.295,295.347 77.584,298.904 77.573 C 305.545 77.552,305.229 78.790,304.972 53.819 L 304.741 31.466 300.146 31.203 C 294.893 30.902,292.777 32.101,293.342 35.058 C 293.705 36.958,293.612 36.937,290.849 34.511 C 286.514 30.705,279.737 29.273,274.132 30.978 M324.431 30.948 C 312.343 34.052,308.021 46.315,316.357 53.859 C 317.390 54.794,322.376 56.927,327.437 58.598 C 338.448 62.236,340.592 65.255,333.643 67.336 C 330.018 68.423,324.138 66.811,324.138 64.731 C 324.138 61.494,314.420 59.667,312.097 62.467 C 307.540 67.957,320.137 77.981,331.520 77.923 C 353.464 77.810,355.453 56.194,334.102 49.872 C 324.531 47.038,321.350 43.794,325.805 41.410 C 330.022 39.153,333.170 40.373,337.750 46.039 C 340.067 48.906,348.276 47.239,348.276 43.901 C 348.276 35.276,335.212 28.179,324.431 30.948 M287.757 42.804 C 292.702 45.938,294.803 55.420,291.828 61.174 C 287.566 69.414,275.754 69.443,271.560 61.223 C 265.285 48.924,276.782 35.849,287.757 42.804 " stroke="none" fill="#000000" fill-rule="evenodd"></path></g></svg>