<svg id="svg" xmlns="http://www.w3.org/2000/svg" xmlns:xlink="http://www.w3.org/1999/xlink" width="400" height="400" viewBox="0, 0, 400,400"><g id="svgg"><path id="path0" d="M56.415 68.069 C 49.541 70.052,44.861 79.194,46.866 86.723 C 47.664 89.721,49.624 92.072,60.272 102.807 L 72.742 115.380 65.983 120.291 C 52.097 130.380,35.613 145.695,23.074 160.156 C -4.354 191.790,-6.274 201.614,10.555 224.219 C 72.503 307.427,170.973 343.387,261.630 315.908 L 270.577 313.196 289.781 332.331 C 309.756 352.235,310.928 353.125,317.187 353.125 C 328.502 353.125,336.155 341.253,331.035 331.641 C 328.852 327.541,70.307 69.743,67.017 68.386 C 63.793 67.056,60.293 66.951,56.415 68.069 M181.397 75.823 C 172.453 76.621,156.819 79.138,149.609 80.941 C 141.784 82.898,128.906 86.937,128.906 87.435 C 128.906 87.693,136.972 95.963,146.829 105.814 L 164.752 123.724 172.025 121.227 C 238.814 98.298,301.793 161.221,278.805 227.912 L 276.274 235.255 301.329 260.310 L 326.384 285.365 334.090 279.675 C 349.085 268.603,364.488 254.290,376.956 239.844 C 404.375 208.073,406.241 198.446,389.382 175.705 C 338.146 106.592,259.553 68.849,181.397 75.823 M190.430 145.872 C 189.248 146.051,188.281 146.439,188.281 146.735 C 188.281 147.814,253.080 212.024,253.622 211.482 C 253.929 211.175,254.327 207.147,254.506 202.532 C 255.885 166.994,225.918 140.496,190.430 145.872 M145.485 197.109 C 144.270 230.816,169.318 255.867,202.851 254.480 L 211.561 254.119 222.664 265.242 C 229.365 271.955,233.421 276.577,232.897 276.901 C 230.681 278.270,220.064 281.412,214.155 282.447 C 163.548 291.310,116.406 251.548,116.406 200.000 C 116.406 189.172,119.815 172.417,123.099 167.103 C 123.423 166.578,128.028 170.619,134.718 177.297 L 145.801 188.359 145.485 197.109 " stroke="none" fill="#000000" fill-rule="evenodd"></path></g></svg>