<?xml version="1.0" standalone="no"?>
<!DOCTYPE svg PUBLIC "-//W3C//DTD SVG 20010904//EN"
 "http://www.w3.org/TR/2001/REC-SVG-20010904/DTD/svg10.dtd">
<svg version="1.0" xmlns="http://www.w3.org/2000/svg"
 width="512.000000pt" height="512.000000pt" viewBox="0 0 512.000000 512.000000"
 preserveAspectRatio="xMidYMid meet">

<g transform="translate(0.000000,512.000000) scale(0.100000,-0.100000)"
fill="#000000" stroke="none">
<path d="M375 4776 c-116 -59 -242 -192 -300 -318 -85 -187 -97 -448 -30 -686
34 -118 120 -289 199 -393 136 -180 342 -319 566 -382 80 -23 86 -26 104 -63
47 -98 107 -184 173 -250 l72 -71 -45 -51 c-67 -77 -150 -215 -186 -309 l-32
-85 -171 4 c-163 3 -173 4 -233 32 -79 37 -152 114 -183 194 -20 51 -23 81
-27 270 l-4 212 -140 0 -140 0 4 -237 c5 -259 9 -284 72 -413 22 -46 56 -91
116 -151 70 -71 100 -93 170 -127 108 -51 161 -62 342 -69 l147 -6 6 -46 c7
-61 24 -169 31 -203 l6 -28 -158 0 c-192 0 -267 -14 -383 -72 -119 -59 -220
-160 -279 -279 -61 -124 -72 -186 -72 -436 l0 -213 139 0 139 0 4 213 c4 188
7 218 27 269 39 99 109 170 209 209 51 20 80 23 283 27 l226 4 23 -33 c13 -19
44 -58 69 -88 32 -38 41 -56 32 -59 -8 -3 -50 -22 -93 -44 -57 -29 -100 -60
-151 -112 -148 -148 -196 -282 -197 -548 l0 -118 145 0 145 0 0 143 c0 126 3
149 24 199 62 152 189 228 377 228 75 0 81 -2 207 -65 211 -106 455 -178 692
-205 122 -14 398 -14 520 0 237 27 481 99 692 205 126 63 132 65 207 65 188 0
315 -76 377 -228 21 -50 24 -73 24 -199 l0 -143 145 0 145 0 0 118 c-1 267
-49 402 -197 549 -65 63 -169 130 -244 155 -9 3 0 21 32 59 25 30 56 69 69 88
l23 33 226 -4 c203 -4 232 -7 283 -27 100 -39 170 -110 209 -209 20 -51 23
-81 27 -269 l4 -213 139 0 139 0 0 213 c0 250 -11 312 -72 436 -59 119 -160
220 -279 279 -116 58 -191 72 -383 72 l-158 0 6 28 c7 34 24 142 31 203 l6 46
147 6 c181 7 234 18 342 69 70 34 100 56 170 127 60 60 94 105 116 151 63 129
67 154 72 413 l4 237 -140 0 -140 0 -4 -212 c-4 -189 -7 -219 -27 -270 -31
-80 -104 -157 -183 -194 -60 -28 -70 -29 -233 -32 l-171 -4 -32 85 c-35 93
-119 232 -185 310 l-44 50 71 71 c65 66 126 153 172 250 18 37 24 40 104 63
224 63 430 202 566 382 79 104 165 275 199 393 67 238 55 499 -30 686 -58 126
-184 259 -300 318 l-50 25 -6 -73 c-16 -189 -80 -363 -191 -524 -94 -137 -88
-148 -88 174 l0 280 -57 -15 c-191 -50 -366 -201 -472 -408 -110 -216 -167
-483 -177 -835 -3 -101 -12 -196 -20 -226 -18 -66 -71 -119 -138 -139 -73 -22
-189 -19 -256 6 -30 11 -94 31 -143 44 -49 14 -91 26 -93 28 -2 2 5 29 15 60
24 68 51 209 51 262 0 32 7 45 53 89 64 62 88 110 94 190 13 161 -114 298
-276 299 -163 1 -284 -120 -285 -283 0 -80 26 -139 91 -203 l46 -45 -16 -94
c-9 -51 -26 -123 -39 -158 l-23 -65 -205 0 -205 0 -23 65 c-13 35 -30 107 -39
158 l-16 94 46 45 c65 64 91 123 91 203 -1 163 -122 284 -285 283 -80 0 -139
-25 -198 -84 -115 -115 -102 -311 26 -416 36 -30 43 -41 43 -72 0 -54 28 -201
50 -266 11 -32 18 -60 16 -62 -2 -2 -44 -14 -93 -28 -49 -13 -113 -33 -143
-44 -67 -25 -183 -28 -256 -6 -67 20 -120 73 -138 139 -8 30 -17 125 -20 226
-10 352 -67 619 -177 835 -106 207 -281 358 -471 408 l-58 15 0 -280 c0 -322
6 -311 -88 -174 -111 161 -175 335 -191 524 l-6 73 -50 -25z"/>
</g>
</svg>
