<?xml version="1.0" encoding="UTF-8"?>
<!-- Generator: visioncortex VTracer 0.6.2 -->
<svg version="1.1" xmlns="http://www.w3.org/2000/svg" width="1280" height="170">
<path d="M0 0 C0 14.85 0 29.7 0 45 C-10.07261685 46.11917965 -10.07261685 46.11917965 -13.70703125 45.9921875 C-23.76478685 45.72686569 -33.54665079 46.12637006 -43.5390625 47.30859375 C-54.33073216 48.52317402 -65.12393451 49.59191918 -75.94140625 50.54296875 C-77.4360235 50.67496227 -78.93063711 50.80699704 -80.42524719 50.93907166 C-82.73472902 51.14298279 -85.04422379 51.34674255 -87.353755 51.55009365 C-161.10498879 58.04971121 -234.56772913 66.5809738 -308 76 C-309.05329498 76.13505951 -310.10658997 76.27011902 -311.19180298 76.40927124 C-379.02470791 85.11347915 -446.74461204 94.58089989 -514.45596468 104.17472881 C-688.91341247 128.89241491 -688.91341247 128.89241491 -1066 166.3125 C-1066.74677254 166.35362789 -1067.49354507 166.39475578 -1068.26294708 166.43712997 C-1083.49072613 167.27288329 -1098.720894 168.02747562 -1113.9609375 168.60546875 C-1115.04141357 168.64674393 -1116.12188965 168.6880191 -1117.23510742 168.73054504 C-1124.00032534 168.97231803 -1130.74925378 169.04918739 -1137.51804066 168.98090267 C-1142.13655024 168.95197122 -1146.6838324 169.14964142 -1151.29272461 169.49389648 C-1163.74437781 170.30915802 -1176.21956213 170.12403733 -1188.69140625 170.09765625 C-1191.03706844 170.09618243 -1193.38273097 170.09516444 -1195.72839355 170.09460449 C-1204.33976745 170.0894026 -1212.95113426 170.0754415 -1221.5625 170.0625 C-1250.4890625 170.0315625 -1250.4890625 170.0315625 -1280 170 C-1280 129.74 -1280 89.48 -1280 48 C-1270.32732125 48.5689811 -1260.8042837 49.13057562 -1251.19946289 50.20532227 C-1203.78675664 55.43994214 -1156.14577479 59.23400353 -1108.52154541 61.85931396 C-1105.31056846 62.03846585 -1102.10019693 62.22722481 -1098.88980103 62.41645813 C-1004.97857349 67.93861847 -910.54286103 68.77649735 -778.26873779 64.14782715 C-774.9815443 63.99916535 -771.69417256 63.85514391 -768.40673828 63.71191406 C-725.58713144 61.82798755 -682.88289525 58.63259967 -640.16632843 55.17525482 C-638.12408559 55.01003846 -636.08178935 54.84548248 -634.03948975 54.68096924 C-567.36816725 49.29750197 -500.83171994 42.14825376 -434.38287354 34.52935791 C-343.20306519 24.07923725 -251.93323889 13.65667024 -132.89593506 4.29290771 C-129.02585361 4.00194375 -125.15667638 3.70095811 -121.28759766 3.39697266 C-80.75470155 0.22785521 -40.62772974 -0.45792056 0 0 Z M-67 1 C-67 1.33 -67 1.66 -67 2 C-63.7 2 -60.4 2 -57 2 C-57 1.67 -57 1.34 -57 1 C-60.3 1 -63.6 1 -67 1 Z M-100 3 C-100 3.33 -100 3.66 -100 4 C-97.36 4 -94.72 4 -92 4 C-92 3.67 -92 3.34 -92 3 C-94.64 3 -97.28 3 -100 3 Z M-129 5 C-129 5.33 -129 5.66 -129 6 C-127.35 6 -125.7 6 -124 6 C-124 5.67 -124 5.34 -124 5 C-125.65 5 -127.3 5 -129 5 Z M-169 8 C-169 8.33 -169 8.66 -169 9 C-167.02 9 -165.04 9 -163 9 C-163 8.67 -163 8.34 -163 8 C-164.98 8 -166.96 8 -169 8 Z M-192 10 C-192 10.33 -192 10.66 -192 11 C-190.02 11 -188.04 11 -186 11 C-186 10.67 -186 10.34 -186 10 C-187.98 10 -189.96 10 -192 10 Z M-214 12 C-214 12.33 -214 12.66 -214 13 C-212.35 13 -210.7 13 -209 13 C-209 12.67 -209 12.34 -209 12 C-210.65 12 -212.3 12 -214 12 Z M-235 14 C-235 14.33 -235 14.66 -235 15 C-233.35 15 -231.7 15 -230 15 C-230 14.67 -230 14.34 -230 14 C-231.65 14 -233.3 14 -235 14 Z M-266 17 C-262 18 -262 18 -262 18 Z M-285 19 C-281 20 -281 20 -281 20 Z M-304 21 C-300 22 -300 22 -300 22 Z M-322 23 C-318 24 -318 24 -318 24 Z M-368 28 C-364 29 -364 29 -364 29 Z M-386 30 C-382 31 -382 31 -382 31 Z M-404 32 C-400 33 -400 33 -400 33 Z M-449 37 C-445 38 -445 38 -445 38 Z M-467 39 C-463 40 -463 40 -463 40 Z M-485 41 C-481 42 -481 42 -481 42 Z M-25 44 C-25 44.33 -25 44.66 -25 45 C-20.05 45 -15.1 45 -10 45 C-10 44.67 -10 44.34 -10 44 C-14.95 44 -19.9 44 -25 44 Z M-533 46 C-529 47 -529 47 -529 47 Z M-553 48 C-553 48.33 -553 48.66 -553 49 C-551.35 49 -549.7 49 -548 49 C-548 48.67 -548 48.34 -548 48 C-549.65 48 -551.3 48 -553 48 Z M-1267 50 C-1263 51 -1263 51 -1263 51 Z M-573 50 C-573 50.33 -573 50.66 -573 51 C-571.35 51 -569.7 51 -568 51 C-568 50.67 -568 50.34 -568 50 C-569.65 50 -571.3 50 -573 50 Z M-594 52 C-594 52.33 -594 52.66 -594 53 C-592.35 53 -590.7 53 -589 53 C-589 52.67 -589 52.34 -589 52 C-590.65 52 -592.3 52 -594 52 Z M-1216 55 C-1216 55.33 -1216 55.66 -1216 56 C-1214.35 56 -1212.7 56 -1211 56 C-1211 55.67 -1211 55.34 -1211 55 C-1212.65 55 -1214.3 55 -1216 55 Z M-628 55 C-628 55.33 -628 55.66 -628 56 C-626.35 56 -624.7 56 -623 56 C-623 55.67 -623 55.34 -623 55 C-624.65 55 -626.3 55 -628 55 Z M-1194 57 C-1194 57.33 -1194 57.66 -1194 58 C-1192.02 58 -1190.04 58 -1188 58 C-1188 57.67 -1188 57.34 -1188 57 C-1189.98 57 -1191.96 57 -1194 57 Z M-652 57 C-652 57.33 -652 57.66 -652 58 C-650.35 58 -648.7 58 -647 58 C-647 57.67 -647 57.34 -647 57 C-648.65 57 -650.3 57 -652 57 Z M-1170 59 C-1170 59.33 -1170 59.66 -1170 60 C-1168.02 60 -1166.04 60 -1164 60 C-1164 59.67 -1164 59.34 -1164 59 C-1165.98 59 -1167.96 59 -1170 59 Z M-678 59 C-678 59.33 -678 59.66 -678 60 C-676.02 60 -674.04 60 -672 60 C-672 59.67 -672 59.34 -672 59 C-673.98 59 -675.96 59 -678 59 Z M-1143 61 C-1143 61.33 -1143 61.66 -1143 62 C-1140.69 62 -1138.38 62 -1136 62 C-1136 61.67 -1136 61.34 -1136 61 C-1138.31 61 -1140.62 61 -1143 61 Z M-706 61 C-706 61.33 -706 61.66 -706 62 C-703.69 62 -701.38 62 -699 62 C-699 61.67 -699 61.34 -699 61 C-701.31 61 -703.62 61 -706 61 Z M-1110 63 C-1106 64 -1106 64 -1106 64 Z M-738 63 C-738 63.33 -738 63.66 -738 64 C-736.35 64 -734.7 64 -733 64 C-733 63.67 -733 63.34 -733 63 C-734.65 63 -736.3 63 -738 63 Z M-1094 64 C-1094 64.33 -1094 64.66 -1094 65 C-1091.36 65 -1088.72 65 -1086 65 C-1086 64.67 -1086 64.34 -1086 64 C-1088.64 64 -1091.28 64 -1094 64 Z M-758 64 C-758 64.33 -758 64.66 -758 65 C-755.36 65 -752.72 65 -750 65 C-750 64.67 -750 64.34 -750 64 C-752.64 64 -755.28 64 -758 64 Z M-1073 65 C-1069 66 -1069 66 -1069 66 Z M-775 65 C-771 66 -771 66 -771 66 Z M-482 65 C-482 65.66 -482 66.32 -482 67 C-480.35 67 -478.7 67 -477 67 C-479.38162009 65.58614089 -479.38162009 65.58614089 -482 65 Z M-1054 66 C-1054 66.33 -1054 66.66 -1054 67 C-1049.71 67 -1045.42 67 -1041 67 C-1041 66.67 -1041 66.34 -1041 66 C-1045.29 66 -1049.58 66 -1054 66 Z M-804 66 C-804 66.33 -804 66.66 -804 67 C-799.71 67 -795.42 67 -791 67 C-791 66.67 -791 66.34 -791 66 C-795.29 66 -799.58 66 -804 66 Z M-1023 67 C-1019 68 -1019 68 -1019 68 Z M-826 67 C-826 67.33 -826 67.66 -826 68 C-824.35 68 -822.7 68 -821 68 C-821 67.67 -821 67.34 -821 67 C-822.65 67 -824.3 67 -826 67 Z M-505.11328125 66.6640625 C-506.20208588 66.73639603 -507.2908905 66.80872955 -508.41268921 66.883255 C-512.04624022 67.12652848 -515.67938597 67.37528941 -519.3125 67.625 C-520.58574127 67.71169952 -521.85898254 67.79839905 -523.17080688 67.88772583 C-553.7834251 69.97882315 -584.36757655 72.42536486 -614.95288086 74.87882996 C-625.29814661 75.70806784 -635.64454421 76.52131034 -645.9921875 77.3203125 C-647.35322615 77.42548058 -648.71426436 77.5306543 -650.07530212 77.63583374 C-650.74326592 77.68744722 -651.41122972 77.73906071 -652.09943485 77.79223824 C-652.76360133 77.84355841 -653.42776781 77.89487858 -654.11206055 77.94775391 C-654.77218108 77.99875685 -655.43230162 78.04975979 -656.1124258 78.10230827 C-681.00501765 80.02620178 -705.88590773 82.0631176 -730.76147461 84.19555664 C-746.21191758 85.51874182 -761.66587881 86.78269909 -777.125 88 C-794.40497784 89.36166507 -811.67236621 90.83703255 -828.9375 92.375 C-851.63639467 94.39618998 -874.34543602 96.25957021 -897.0625 98.0625 C-897.87279034 98.12680962 -898.68308067 98.19111923 -899.51792526 98.25737762 C-901.96303799 98.45140408 -904.40815418 98.64538675 -906.85327148 98.83935547 C-910.03890271 99.09208493 -913.22453038 99.3448593 -916.41015625 99.59765625 C-917.18592199 99.65919136 -917.96168774 99.72072647 -918.76096153 99.78412628 C-930.93030419 100.74985756 -943.09699547 101.74386046 -955.26147461 102.76922607 C-976.19177525 104.53301021 -997.12586838 106.25064653 -1018.0625 107.9375 C-1018.85304779 108.00120663 -1019.64359558 108.06491325 -1020.45809937 108.13055038 C-1048.82569808 110.41394465 -1077.2057004 112.48687424 -1105.59790039 114.43920898 C-1106.67946993 114.51373732 -1106.67946993 114.51373732 -1107.78288937 114.58977127 C-1111.13634846 114.82081378 -1114.48987529 115.05057166 -1117.84361267 115.27755737 C-1121.22978536 115.50941841 -1124.61488508 115.75324632 -1128 116 C-1129.06855225 116.07020355 -1130.13710449 116.1404071 -1131.23803711 116.21273804 C-1132.72799194 116.32339096 -1132.72799194 116.32339096 -1134.24804688 116.4362793 C-1135.11973511 116.49704147 -1135.99142334 116.55780365 -1136.88952637 116.6204071 C-1139.2112469 116.8307357 -1139.2112469 116.8307357 -1141 119 C-1137.83350749 119.17008588 -1134.6667838 119.33543399 -1131.5 119.5 C-1130.613125 119.54769531 -1129.72625 119.59539062 -1128.8125 119.64453125 C-1123.53287287 119.91627676 -1118.28655326 120.04940704 -1113 120 C-1113 120.33 -1113 120.66 -1113 121 C-1107.39 121 -1101.78 121 -1096 121 C-1096 121.33 -1096 121.66 -1096 122 C-1088.74 122 -1081.48 122 -1074 122 C-1074 122.33 -1074 122.66 -1074 123 C-1073.38473607 122.99484627 -1072.76947214 122.98969254 -1072.13556385 122.98438263 C-1056.9677136 122.85743729 -1041.79984993 122.73224028 -1026.63197041 122.60884857 C-1019.29606245 122.54913089 -1011.96015976 122.48887292 -1004.62426758 122.42724609 C-941.49497473 121.89747401 -941.49497473 121.89747401 -911 122 C-911 121.67 -911 121.34 -911 121 C-903.0800587 120.12504821 -895.2765687 119.87409958 -887.3125 119.9375 C-885.66991211 119.94426758 -885.66991211 119.94426758 -883.99414062 119.95117188 C-881.32936691 119.96280844 -878.66471483 119.97915436 -876 120 C-876 119.67 -876 119.34 -876 119 C-866.66013591 117.79485625 -857.39792784 117.90786345 -848 118 C-848 117.67 -848 117.34 -848 117 C-844.04 117 -840.08 117 -836 117 C-836 116.67 -836 116.34 -836 116 C-824.94157511 114.67959106 -814.15255987 113.67251863 -803 114 C-803 113.67 -803 113.34 -803 113 C-799.37 113 -795.74 113 -792 113 C-792 112.67 -792 112.34 -792 112 C-790.74195557 111.84966309 -789.48391113 111.69932617 -788.18774414 111.54443359 C-786.38687859 111.32912601 -784.58601625 111.11379156 -782.78515625 110.8984375 C-781.8105545 110.78189316 -780.83595276 110.66534882 -779.83181763 110.54527283 C-774.27408999 109.88025514 -768.71659576 109.21334749 -763.15942383 108.54370117 C-761.9983461 108.40380264 -760.83726837 108.26390411 -759.64100647 108.11976624 C-757.2527665 107.83200067 -754.86453213 107.5441887 -752.4763031 107.2563324 C-746.06854837 106.48521007 -739.65984063 105.7235225 -733.24928284 104.97607422 C-673.59518709 98.01112787 -614.20953118 89.02877758 -555 79 C-552.61702683 78.59650455 -550.23405157 78.1930215 -547.85107422 77.78955078 C-546.09586205 77.49231361 -546.09586205 77.49231361 -544.30519104 77.18907166 C-539.80237265 76.42746374 -535.29897793 75.66929426 -530.79556274 74.91122437 C-527.72045074 74.39114319 -524.64667849 73.86367106 -521.57299805 73.33520508 C-519.72839388 73.02270703 -517.88375104 72.71043713 -516.0390625 72.3984375 C-515.21921371 72.25523575 -514.39936493 72.112034 -513.55467224 71.9644928 C-508.97296036 71.19722566 -504.6610873 70.93264837 -500 71 C-498.52637685 70.82769287 -497.05628961 70.61512365 -495.59765625 70.34375 C-494.85322266 70.20839844 -494.10878906 70.07304688 -493.34179688 69.93359375 C-492.58962891 69.79050781 -491.83746094 69.64742188 -491.0625 69.5 C-490.28326172 69.35691406 -489.50402344 69.21382813 -488.70117188 69.06640625 C-486.7997579 68.71645276 -484.89972607 68.35900335 -483 68 C-484.99263779 65.55633228 -484.99263779 65.55633228 -488.93041992 65.83349609 C-494.33342492 65.95648259 -499.72222895 66.29613015 -505.11328125 66.6640625 Z M-994 68 C-994 68.33 -994 68.66 -994 69 C-983.77 69 -973.54 69 -963 69 C-963 68.67 -963 68.34 -963 68 C-973.23 68 -983.46 68 -994 68 Z M-881 68 C-881 68.33 -881 68.66 -881 69 C-871.1 69 -861.2 69 -851 69 C-851 68.67 -851 68.34 -851 68 C-860.9 68 -870.8 68 -881 68 Z M-742 106 C-738 107 -738 107 -738 107 Z M-759 108 C-755 109 -755 109 -755 109 Z M-777 110 C-773 111 -773 111 -773 111 Z M-830 115 C-830 115.33 -830 115.66 -830 116 C-828.02 116 -826.04 116 -824 116 C-824 115.67 -824 115.34 -824 115 C-825.98 115 -827.96 115 -830 115 Z M-866 118 C-862 119 -862 119 -862 119 Z M-899 120 C-899 120.33 -899 120.66 -899 121 C-897.02 121 -895.04 121 -893 121 C-893 120.67 -893 120.34 -893 120 C-894.98 120 -896.96 120 -899 120 Z M-948 122 C-948 122.33 -948 122.66 -948 123 C-943.38 123 -938.76 123 -934 123 C-934 122.67 -934 122.34 -934 122 C-938.62 122 -943.24 122 -948 122 Z M-1039 123 C-1039 123.33 -1039 123.66 -1039 124 C-1016.56 124 -994.12 124 -971 124 C-971 123.67 -971 123.34 -971 123 C-993.44 123 -1015.88 123 -1039 123 Z " fill="#9F1015" transform="translate(1280,0)"/>
<path d="M0 0 C0 0.33 0 0.66 0 1 C-0.76884521 1.04374756 -1.53769043 1.08749512 -2.32983398 1.13256836 C-96.12720235 6.82355426 -189.58267969 24.35228691 -347.625 51.5625 C-348.66362686 51.74611713 -349.70225372 51.92973427 -350.77235413 52.11891556 C-356.69108676 53.16549949 -362.60914537 54.21575411 -368.52614212 55.27210999 C-370.29882012 55.58838283 -372.07164049 55.90385896 -373.84461594 56.21846008 C-376.259715 56.64747507 -378.67413081 57.08014129 -381.08837891 57.51391602 C-382.12351057 57.69686769 -382.12351057 57.69686769 -383.17955399 57.88351536 C-386.57529338 58.49794268 -389.9238969 59.2089685 -393.26673889 60.05970764 C-397.02013335 61.00507097 -400.60956912 61.52718074 -404.45703125 61.9296875 C-405.17060287 62.00461426 -405.8841745 62.07954102 -406.61936951 62.15673828 C-409.01633283 62.40430314 -411.41420537 62.64069867 -413.8125 62.875 C-414.66976685 62.9602594 -415.52703369 63.0455188 -416.41027832 63.13336182 C-433.5651653 64.82551582 -450.74738495 65.99605177 -467.9475708 67.11569214 C-489.87642026 68.54464462 -511.78214348 70.18750954 -533.6875 71.9375 C-534.49116879 72.00166233 -535.29483757 72.06582466 -536.12285995 72.1319313 C-543.39947533 72.71296959 -550.67600555 73.29506814 -557.95240784 73.87876892 C-568.29782844 74.70806298 -578.64438587 75.52129812 -588.9921875 76.3203125 C-590.35322615 76.42548058 -591.71426436 76.5306543 -593.07530212 76.63583374 C-593.74326592 76.68744722 -594.41122972 76.73906071 -595.09943485 76.79223824 C-595.76360133 76.84355841 -596.42776781 76.89487858 -597.11206055 76.94775391 C-597.77218108 76.99875685 -598.43230162 77.04975979 -599.1124258 77.10230827 C-624.00501765 79.02620178 -648.88590773 81.0631176 -673.76147461 83.19555664 C-689.21191758 84.51874182 -704.66587881 85.78269909 -720.125 87 C-737.40497784 88.36166507 -754.67236621 89.83703255 -771.9375 91.375 C-794.63639467 93.39618998 -817.34543602 95.25957021 -840.0625 97.0625 C-840.87279034 97.12680962 -841.68308067 97.19111923 -842.51792526 97.25737762 C-844.96303799 97.45140408 -847.40815418 97.64538675 -849.85327148 97.83935547 C-853.03890271 98.09208493 -856.22453038 98.3448593 -859.41015625 98.59765625 C-860.18592199 98.65919136 -860.96168774 98.72072647 -861.76096153 98.78412628 C-873.93030419 99.74985756 -886.09699547 100.74386046 -898.26147461 101.76922607 C-932.16517536 104.62627102 -966.07809345 107.3681899 -1000 110 C-1000.80751709 110.06276878 -1001.61503418 110.12553757 -1002.44702148 110.19020844 C-1012.8110284 110.9954472 -1023.17621137 111.78199733 -1033.54367065 112.54153442 C-1036.48919887 112.75767589 -1039.43422823 112.97923902 -1042.37893677 113.20626831 C-1070.68036457 115.38004658 -1098.76970816 116.57144496 -1126.95465088 112.43511963 C-1131.22631836 111.82478357 -1135.50793499 111.30974311 -1139.79161072 110.7915802 C-1145.42600381 110.10964451 -1151.05662479 109.39781193 -1156.6875 108.6875 C-1157.86603546 108.53892548 -1159.04457092 108.39035095 -1160.25881958 108.23727417 C-1181.25447234 105.57844223 -1202.11655602 102.43863937 -1223 99 C-1223 81.51 -1223 64.02 -1223 46 C-1213.32732125 46.5689811 -1203.8042837 47.13057562 -1194.19946289 48.20532227 C-1146.78675664 53.43994214 -1099.14577479 57.23400353 -1051.52154541 59.85931396 C-1048.31056846 60.03846585 -1045.10019693 60.22722481 -1041.88980103 60.41645813 C-947.97857349 65.93861847 -853.54286103 66.77649735 -721.26873779 62.14782715 C-717.9815443 61.99916535 -714.69417256 61.85514391 -711.40673828 61.71191406 C-668.58713144 59.82798755 -625.88289525 56.63259967 -583.16632843 53.17525482 C-581.12408559 53.01003846 -579.08178935 52.84548248 -577.03948975 52.68096924 C-510.36816725 47.29750197 -443.83171994 40.14825376 -377.38287354 32.52935791 C-290.64276795 22.58807172 -203.82153928 12.65978983 -44.375 0.1875 C-43.36447571 0.12406403 -42.35395142 0.06062805 -41.31280518 -0.00473022 C-13.6346834 -1.72357172 -13.6346834 -1.72357172 0 0 Z M-43 1 C-43 1.33 -43 1.66 -43 2 C-40.36 2 -37.72 2 -35 2 C-35 1.67 -35 1.34 -35 1 C-37.64 1 -40.28 1 -43 1 Z M-72 3 C-72 3.33 -72 3.66 -72 4 C-70.35 4 -68.7 4 -67 4 C-67 3.67 -67 3.34 -67 3 C-68.65 3 -70.3 3 -72 3 Z M-112 6 C-112 6.33 -112 6.66 -112 7 C-110.02 7 -108.04 7 -106 7 C-106 6.67 -106 6.34 -106 6 C-107.98 6 -109.96 6 -112 6 Z M-135 8 C-135 8.33 -135 8.66 -135 9 C-133.02 9 -131.04 9 -129 9 C-129 8.67 -129 8.34 -129 8 C-130.98 8 -132.96 8 -135 8 Z M-157 10 C-157 10.33 -157 10.66 -157 11 C-155.35 11 -153.7 11 -152 11 C-152 10.67 -152 10.34 -152 10 C-153.65 10 -155.3 10 -157 10 Z M-178 12 C-178 12.33 -178 12.66 -178 13 C-176.35 13 -174.7 13 -173 13 C-173 12.67 -173 12.34 -173 12 C-174.65 12 -176.3 12 -178 12 Z M-209 15 C-205 16 -205 16 -205 16 Z M-228 17 C-224 18 -224 18 -224 18 Z M-247 19 C-243 20 -243 20 -243 20 Z M-265 21 C-261 22 -261 22 -261 22 Z M-311 26 C-307 27 -307 27 -307 27 Z M-329 28 C-325 29 -325 29 -325 29 Z M-347 30 C-343 31 -343 31 -343 31 Z M-392 35 C-388 36 -388 36 -388 36 Z M-410 37 C-406 38 -406 38 -406 38 Z M-428 39 C-424 40 -424 40 -424 40 Z M-476 44 C-472 45 -472 45 -472 45 Z M-496 46 C-496 46.33 -496 46.66 -496 47 C-494.35 47 -492.7 47 -491 47 C-491 46.67 -491 46.34 -491 46 C-492.65 46 -494.3 46 -496 46 Z M-1210 48 C-1206 49 -1206 49 -1206 49 Z M-516 48 C-516 48.33 -516 48.66 -516 49 C-514.35 49 -512.7 49 -511 49 C-511 48.67 -511 48.34 -511 48 C-512.65 48 -514.3 48 -516 48 Z M-537 50 C-537 50.33 -537 50.66 -537 51 C-535.35 51 -533.7 51 -532 51 C-532 50.67 -532 50.34 -532 50 C-533.65 50 -535.3 50 -537 50 Z M-1159 53 C-1159 53.33 -1159 53.66 -1159 54 C-1157.35 54 -1155.7 54 -1154 54 C-1154 53.67 -1154 53.34 -1154 53 C-1155.65 53 -1157.3 53 -1159 53 Z M-571 53 C-571 53.33 -571 53.66 -571 54 C-569.35 54 -567.7 54 -566 54 C-566 53.67 -566 53.34 -566 53 C-567.65 53 -569.3 53 -571 53 Z M-1137 55 C-1137 55.33 -1137 55.66 -1137 56 C-1135.02 56 -1133.04 56 -1131 56 C-1131 55.67 -1131 55.34 -1131 55 C-1132.98 55 -1134.96 55 -1137 55 Z M-595 55 C-595 55.33 -595 55.66 -595 56 C-593.35 56 -591.7 56 -590 56 C-590 55.67 -590 55.34 -590 55 C-591.65 55 -593.3 55 -595 55 Z M-1113 57 C-1113 57.33 -1113 57.66 -1113 58 C-1111.02 58 -1109.04 58 -1107 58 C-1107 57.67 -1107 57.34 -1107 57 C-1108.98 57 -1110.96 57 -1113 57 Z M-621 57 C-621 57.33 -621 57.66 -621 58 C-619.02 58 -617.04 58 -615 58 C-615 57.67 -615 57.34 -615 57 C-616.98 57 -618.96 57 -621 57 Z M-1086 59 C-1086 59.33 -1086 59.66 -1086 60 C-1083.69 60 -1081.38 60 -1079 60 C-1079 59.67 -1079 59.34 -1079 59 C-1081.31 59 -1083.62 59 -1086 59 Z M-649 59 C-649 59.33 -649 59.66 -649 60 C-646.69 60 -644.38 60 -642 60 C-642 59.67 -642 59.34 -642 59 C-644.31 59 -646.62 59 -649 59 Z M-1053 61 C-1049 62 -1049 62 -1049 62 Z M-681 61 C-681 61.33 -681 61.66 -681 62 C-679.35 62 -677.7 62 -676 62 C-676 61.67 -676 61.34 -676 61 C-677.65 61 -679.3 61 -681 61 Z M-1037 62 C-1037 62.33 -1037 62.66 -1037 63 C-1034.36 63 -1031.72 63 -1029 63 C-1029 62.67 -1029 62.34 -1029 62 C-1031.64 62 -1034.28 62 -1037 62 Z M-701 62 C-701 62.33 -701 62.66 -701 63 C-698.36 63 -695.72 63 -693 63 C-693 62.67 -693 62.34 -693 62 C-695.64 62 -698.28 62 -701 62 Z M-1016 63 C-1012 64 -1012 64 -1012 64 Z M-718 63 C-714 64 -714 64 -714 64 Z M-997 64 C-997 64.33 -997 64.66 -997 65 C-992.71 65 -988.42 65 -984 65 C-984 64.67 -984 64.34 -984 64 C-988.29 64 -992.58 64 -997 64 Z M-747 64 C-747 64.33 -747 64.66 -747 65 C-742.71 65 -738.42 65 -734 65 C-734 64.67 -734 64.34 -734 64 C-738.29 64 -742.58 64 -747 64 Z M-966 65 C-962 66 -962 66 -962 66 Z M-769 65 C-769 65.33 -769 65.66 -769 66 C-767.35 66 -765.7 66 -764 66 C-764 65.67 -764 65.34 -764 65 C-765.65 65 -767.3 65 -769 65 Z M-937 66 C-937 66.33 -937 66.66 -937 67 C-926.77 67 -916.54 67 -906 67 C-906 66.67 -906 66.34 -906 66 C-916.23 66 -926.46 66 -937 66 Z M-824 66 C-824 66.33 -824 66.66 -824 67 C-814.1 67 -804.2 67 -794 67 C-794 66.67 -794 66.34 -794 66 C-803.9 66 -813.8 66 -824 66 Z " fill="#F9A31F" transform="translate(1223,2)"/>
<path d="M0 0 C22.11 0 44.22 0 67 0 C67 14.85 67 29.7 67 45 C56.89274951 46.12302783 56.89274951 46.12302783 52.6953125 46.0625 C51.78136719 46.05476563 50.86742187 46.04703125 49.92578125 46.0390625 C48.06640473 46.01312977 46.20702971 45.98708903 44.34765625 45.9609375 C42.97287109 45.94933594 42.97287109 45.94933594 41.5703125 45.9375 C40.36012451 45.92009766 40.36012451 45.92009766 39.12548828 45.90234375 C36.45773417 45.98569804 33.89166595 46.21829043 31.2409668 46.50292969 C24.16441384 47.17274642 17.10254658 47.0841217 10.0037632 47.03224945 C-8.9275665 46.90270955 -27.8361505 47.19474265 -46.76028442 47.68689346 C-49.25781048 47.75182804 -51.75536849 47.81543041 -54.25292969 47.8789978 C-149.61392769 50.32871388 -244.96896652 54.93553566 -340.1463604 61.31435013 C-343.27644746 61.52375532 -346.40673367 61.73009198 -349.5370369 61.93623734 C-351.63142808 62.07569654 -353.72541458 62.220317 -355.81942749 62.36532593 C-364.23558096 62.92100364 -372.56689621 63.10776136 -381 63 C-381 62.34 -381 61.68 -381 61 C-369.0411058 57.99506592 -356.9200286 55.94848652 -344.78125 53.82421875 C-342.47653719 53.41851103 -340.17186073 53.01259682 -337.86721802 52.60649109 C-331.69353556 51.51998825 -325.51894585 50.43873596 -319.34400177 49.35942841 C-315.48448972 48.68478882 -311.62513936 48.0092301 -307.76580811 47.33355713 C-226.83668436 33.1721824 -145.85675772 19.44166777 -64.31272888 9.2958107 C-61.98758776 9.00623792 -59.66266954 8.714925 -57.33776855 8.4234314 C-11.64046387 2.71211577 -11.64046387 2.71211577 10 3 C10 2.34 10 1.68 10 1 C6.7 1 3.4 1 0 1 C0 0.67 0 0.34 0 0 Z M42 44 C42 44.33 42 44.66 42 45 C46.95 45 51.9 45 57 45 C57 44.67 57 44.34 57 44 C52.05 44 47.1 44 42 44 Z " fill="#B43416" transform="translate(1213,0)"/>
<path d="M0 0 C7.87124443 0 7.87124443 0 11.22387695 0.54736328 C11.98477631 0.66835892 12.74567566 0.78935455 13.52963257 0.91401672 C14.74666367 1.11513313 14.74666367 1.11513313 15.98828125 1.3203125 C17.80389297 1.60887086 19.61956997 1.89701874 21.43530273 2.18481445 C22.39169647 2.33810211 23.34809021 2.49138977 24.33346558 2.64932251 C47.8433419 6.40326334 71.41699316 9.34231043 95.06520081 12.06665039 C102.72318926 12.95364164 110.36407704 13.93976957 118 15 C118.495 16.485 118.495 16.485 119 18 C38.5516742 23.53668224 38.5516742 23.53668224 0 23 C0 15.41 0 7.82 0 0 Z " fill="#B43416" transform="translate(0,101)"/>
<path d="M0 0 C0 0.33 0 0.66 0 1 C-25.9701529 3.38776806 -25.9701529 3.38776806 -37 3 C-37 2.67 -37 2.34 -37 2 C-39.97 1.505 -39.97 1.505 -43 1 C-43 0.67 -43 0.34 -43 0 C-13.1735823 -1.66528354 -13.1735823 -1.66528354 0 0 Z " fill="#FAA420" transform="translate(1223,2)"/>
<path d="M0 0 C7.74136601 -0.10920422 15.31395526 0.02840067 23 1 C23 1.33 23 1.66 23 2 C15.63959083 2.79725902 8.40239645 3.12886183 1 3 C0.67 2.01 0.34 1.02 0 0 Z " fill="#F69F1F" transform="translate(1200,1)"/>
<path d="M0 0 C2 1 2 1 2 1 Z " fill="#9E1015" transform="translate(359,120)"/>
<path d="M0 0 C2 1 2 1 2 1 Z " fill="#9E1015" transform="translate(189,120)"/>
<path d="M0 0 C2 1 2 1 2 1 Z " fill="#9E1015" transform="translate(186,120)"/>
<path d="M0 0 C2 1 2 1 2 1 Z " fill="#9E1015" transform="translate(397,118)"/>
</svg>
