<?xml version="1.0" standalone="no"?>
<!DOCTYPE svg PUBLIC "-//W3C//DTD SVG 20010904//EN"
 "http://www.w3.org/TR/2001/REC-SVG-20010904/DTD/svg10.dtd">
<svg version="1.0" xmlns="http://www.w3.org/2000/svg"
 width="1563.000000pt" height="1563.000000pt" viewBox="0 0 1563.000000 1563.000000"
 preserveAspectRatio="xMidYMid meet">

<g transform="translate(0.000000,1563.000000) scale(0.100000,-0.100000)"
fill="#000000" stroke="none">
<path d="M4730 12387 c-3 -2 -70 -7 -150 -11 -1456 -65 -2801 -835 -3602
-2061 -124 -190 -172 -272 -266 -461 -246 -491 -401 -1024 -456 -1564 -16
-156 -30 -378 -30 -475 0 -166 25 -474 55 -675 140 -942 568 -1807 1235 -2499
853 -885 2031 -1387 3269 -1394 471 -3 976 76 1435 225 493 159 1007 434 1397
745 51 40 96 73 101 73 4 0 57 -38 117 -86 627 -488 1385 -805 2200 -918 222
-31 572 -47 763 -36 330 19 511 42 776 97 1539 319 2822 1437 3356 2923 414
1154 348 2424 -184 3525 -106 218 -181 349 -321 560 -674 1011 -1726 1710
-2925 1944 -207 40 -421 66 -650 78 -1065 57 -2171 -292 -3015 -951 -60 -47
-113 -86 -117 -86 -4 0 -51 34 -103 75 -681 532 -1502 861 -2360 944 -175 17
-517 36 -525 28z m504 -361 c666 -74 1285 -296 1849 -663 118 -76 351 -246
361 -262 3 -4 -36 -49 -86 -101 -359 -377 -618 -749 -839 -1205 -104 -216
-223 -515 -253 -637 l-6 -28 172 0 173 0 39 108 c204 570 527 1088 948 1521
l121 125 110 -114 c445 -462 762 -967 963 -1532 l38 -108 173 0 c95 0 173 3
173 6 0 3 -21 66 -46 140 -163 486 -427 966 -753 1373 -98 124 -124 153 -284
324 -66 71 -116 132 -111 135 6 4 48 37 95 73 377 294 867 545 1339 687 389
117 744 171 1160 177 489 7 919 -57 1365 -202 1646 -535 2795 -2004 2921
-3733 9 -122 9 -468 0 -590 -104 -1436 -915 -2708 -2172 -3408 -532 -297
-1126 -473 -1759 -521 -168 -13 -562 -6 -735 13 -791 87 -1546 391 -2145 864
-38 31 -72 57 -74 59 -3 2 29 38 70 81 286 297 490 561 684 883 101 167 241
450 313 629 44 108 132 360 132 375 0 3 -78 5 -173 5 l-173 0 -38 -107 c-201
-566 -517 -1070 -962 -1532 l-109 -113 -122 123 c-424 431 -762 977 -965 1562
l-23 67 -173 0 -172 0 6 -27 c30 -123 149 -422 253 -638 221 -456 478 -825
839 -1205 50 -52 89 -97 86 -101 -2 -4 -55 -45 -116 -91 -623 -467 -1333 -749
-2093 -834 -167 -18 -564 -26 -725 -13 -1255 96 -2359 698 -3107 1694 -669
892 -956 2034 -793 3153 156 1064 716 2028 1570 2704 661 523 1458 830 2325
897 158 12 566 5 729 -13z"/>
<path d="M14040 8807 c0 -2 -11 -59 -24 -128 -13 -68 -39 -200 -56 -294 -18
-93 -34 -172 -36 -174 -2 -2 -39 30 -82 71 -109 104 -133 111 -350 106 -140
-4 -178 -8 -232 -27 -90 -31 -193 -103 -257 -180 -101 -123 -216 -392 -244
-571 -14 -92 -6 -262 16 -345 62 -230 241 -418 417 -440 94 -11 309 49 383
107 l25 20 30 -66 30 -66 228 2 227 3 18 95 c141 749 347 1862 347 1874 0 14
-25 16 -220 16 -121 0 -220 -1 -220 -3z m-362 -798 c92 -45 134 -179 111 -359
-20 -164 -153 -350 -274 -385 -37 -11 -72 -15 -97 -11 -214 34 -279 309 -131
554 109 180 266 261 391 201z"/>
<path d="M9775 8776 c-169 -45 -308 -123 -435 -242 -181 -170 -287 -375 -340
-652 -48 -255 -27 -458 67 -652 40 -80 61 -109 138 -186 77 -78 105 -98 185
-137 137 -67 206 -81 380 -81 163 1 278 19 398 63 63 23 76 31 74 47 -4 17
-112 356 -116 361 0 1 -37 -7 -81 -18 -97 -23 -229 -25 -309 -4 -140 37 -235
133 -280 284 -20 69 -21 222 -1 316 45 214 212 400 414 459 105 31 267 18 370
-29 l55 -26 139 138 138 138 -69 66 c-127 119 -264 168 -492 175 -130 4 -154
2 -235 -20z"/>
<path d="M5940 8023 c-165 -827 -172 -875 -136 -980 35 -105 111 -175 225
-209 103 -30 336 -2 403 48 14 10 20 40 28 133 5 66 12 136 15 157 l5 36 -58
-5 c-67 -6 -132 9 -156 36 -25 28 -34 79 -25 142 15 109 119 643 127 651 4 4
54 9 111 10 l105 3 36 163 37 162 -113 0 c-63 0 -114 3 -114 8 0 4 18 92 40
195 22 103 40 194 40 202 0 13 -32 15 -209 15 l-209 0 -152 -767z"/>
<path d="M1296 8693 c-3 -10 -28 -137 -56 -283 -74 -387 -225 -1165 -269
-1387 -21 -106 -36 -195 -33 -198 9 -9 410 -6 416 3 3 5 57 281 121 613 64
332 122 633 129 669 10 50 14 59 19 40 3 -14 28 -313 57 -665 28 -352 53 -646
55 -652 3 -10 53 -13 203 -13 l199 0 21 48 c11 26 117 265 237 532 119 267
242 542 273 612 31 70 57 126 59 124 2 -2 -21 -133 -51 -292 -62 -322 -185
-981 -189 -1004 -2 -13 28 -15 217 -15 l219 0 74 390 c40 215 118 631 173 925
56 294 103 543 106 553 5 16 -14 17 -346 15 l-351 -3 -257 -567 c-141 -312
-258 -566 -259 -564 -3 2 -83 1097 -83 1127 0 5 -153 9 -339 9 -315 0 -340 -1
-345 -17z"/>
<path d="M3705 8389 c-60 -5 -155 -17 -210 -27 l-100 -17 -32 -164 c-18 -91
-31 -166 -29 -169 2 -2 82 7 178 19 219 28 483 31 540 6 47 -20 78 -69 78
-124 0 -74 3 -73 -139 -73 -238 0 -382 -26 -529 -97 -126 -60 -212 -143 -271
-263 -95 -195 -90 -371 16 -505 41 -52 135 -112 216 -137 61 -18 85 -20 191
-15 133 7 202 22 271 61 l46 25 27 -44 27 -45 197 0 c197 0 198 0 203 23 2 12
46 229 96 482 113 574 117 654 42 814 -53 110 -164 191 -322 233 -91 24 -325
32 -496 17z m298 -858 c21 -5 41 -11 43 -14 11 -11 -39 -205 -62 -240 -66
-101 -240 -150 -347 -98 -150 72 -66 283 138 347 47 15 173 17 228 5z"/>
<path d="M5195 8389 c-194 -29 -345 -110 -421 -223 -74 -113 -97 -336 -45
-451 32 -73 64 -101 176 -157 176 -88 335 -181 352 -207 23 -35 21 -105 -4
-139 -34 -46 -60 -53 -240 -57 -174 -3 -280 5 -370 28 -29 8 -53 14 -53 13 0
-1 -13 -71 -29 -156 -16 -85 -26 -158 -23 -162 11 -10 157 -38 257 -48 139
-13 417 -5 505 15 110 25 214 78 277 141 120 119 172 331 123 496 -27 92 -117
167 -335 279 -160 82 -195 116 -195 189 0 40 47 87 97 96 38 7 339 -2 388 -12
l31 -6 48 152 c27 86 44 156 39 161 -5 5 -45 18 -88 30 -65 18 -114 22 -255
25 -96 1 -202 -2 -235 -7z"/>
<path d="M10928 8390 c-53 -4 -148 -15 -211 -25 l-115 -17 -32 -164 c-18 -91
-30 -167 -27 -170 3 -3 81 5 174 17 224 29 489 31 546 4 61 -29 74 -61 68
-167 l-1 -28 -132 0 c-342 0 -540 -61 -688 -210 -125 -124 -186 -276 -178
-436 8 -153 84 -260 236 -332 l77 -37 145 0 c157 1 227 15 307 61 l41 24 27
-45 26 -45 194 0 c116 0 196 4 200 10 3 5 48 226 100 490 103 519 110 589 80
719 -41 171 -168 287 -368 337 -74 18 -328 26 -469 14z m313 -865 c15 -5 15
-14 -2 -98 -25 -123 -33 -140 -91 -192 -58 -52 -125 -77 -208 -76 -111 0 -170
47 -170 135 0 92 80 184 198 229 38 14 68 17 152 13 58 -2 112 -7 121 -11z"/>
<path d="M7164 8375 c-145 -33 -255 -96 -357 -205 -81 -85 -138 -181 -181
-301 -53 -149 -69 -245 -63 -379 10 -208 69 -353 197 -480 122 -123 259 -175
485 -187 182 -9 466 22 544 60 24 11 29 24 58 167 17 85 30 156 28 158 -1 2
-43 -3 -91 -9 -126 -18 -565 -18 -624 0 -68 20 -134 91 -149 159 -13 61 -14
131 -3 149 6 10 115 13 467 15 l459 3 13 60 c7 33 16 121 20 196 5 108 2 151
-11 212 -44 196 -162 318 -361 373 -82 23 -347 28 -431 9z m302 -304 c75 -34
108 -101 102 -206 l-3 -60 -259 -3 c-143 -1 -263 1 -267 5 -12 13 40 128 77
171 19 22 51 51 71 63 79 49 207 63 279 30z"/>
<path d="M12045 8378 c-2 -7 -13 -62 -24 -123 -11 -60 -74 -401 -140 -756 -67
-356 -121 -654 -121 -663 0 -15 22 -16 212 -14 l212 3 12 70 c62 360 128 686
155 759 53 147 131 255 213 298 23 12 71 23 110 27 l71 6 57 195 c31 107 57
199 57 204 1 13 -134 -3 -204 -25 -64 -19 -185 -91 -185 -109 0 -5 -4 -10 -8
-10 -5 0 -18 33 -29 73 l-19 72 -182 3 c-141 2 -183 0 -187 -10z"/>
<path d="M8236 8358 c-3 -7 -19 -92 -36 -188 -18 -96 -81 -438 -141 -759 -60
-321 -109 -586 -109 -588 0 -2 95 -2 212 -1 l212 3 66 360 c70 378 90 457 147
567 73 141 149 199 272 208 l76 5 47 175 c69 256 68 230 15 230 -55 0 -182
-32 -237 -60 -22 -11 -58 -37 -80 -56 l-39 -35 -10 38 c-5 21 -14 54 -19 73
l-8 35 -182 3 c-141 2 -183 0 -186 -10z"/>
<path d="M15112 5979 c-53 -27 -90 -79 -98 -141 -20 -146 128 -259 264 -202
54 22 89 60 112 120 19 51 19 55 2 103 -42 123 -166 176 -280 120z m162 -23
c77 -32 110 -151 64 -230 -43 -74 -136 -97 -212 -53 -49 28 -76 77 -76 141 0
117 112 189 224 142z"/>
<path d="M15130 5810 c0 -89 3 -110 14 -110 11 0 16 14 18 47 4 68 29 70 69 4
18 -28 38 -51 45 -51 20 0 17 10 -13 55 -17 25 -22 40 -15 43 24 8 42 34 42
61 0 44 -27 61 -98 61 l-62 0 0 -110z m125 50 c0 -19 -7 -26 -32 -33 -45 -13
-63 -3 -63 33 0 31 0 31 48 28 42 -3 47 -5 47 -28z"/>
</g>
</svg>
