<?xml version="1.0" standalone="no"?>
<!DOCTYPE svg PUBLIC "-//W3C//DTD SVG 20010904//EN"
 "http://www.w3.org/TR/2001/REC-SVG-20010904/DTD/svg10.dtd">
<svg version="1.0" xmlns="http://www.w3.org/2000/svg"
 width="512.000000pt" height="512.000000pt" viewBox="0 0 512.000000 512.000000"
 preserveAspectRatio="xMidYMid meet">

<g transform="translate(0.000000,512.000000) scale(0.100000,-0.100000)"
fill="#000000" stroke="none">
<path d="M2433 4749 c-482 -43 -917 -345 -1127 -784 -56 -117 -102 -261 -122
-382 -46 -289 18 -743 161 -1139 l46 -125 -38 -57 c-154 -232 -447 -354 -718
-298 -173 36 -294 118 -423 290 -61 81 -115 97 -171 50 -40 -34 -46 -74 -26
-175 46 -225 146 -410 315 -580 152 -154 317 -250 528 -307 88 -23 115 -26
282 -26 216 0 296 15 465 88 55 24 101 40 103 35 5 -13 -50 -142 -84 -196 -96
-150 -233 -246 -424 -294 -104 -26 -247 -22 -350 10 -95 30 -125 28 -166 -13
-26 -26 -34 -42 -34 -69 0 -43 24 -73 117 -150 562 -459 1408 -294 1746 342
l45 84 27 -54 c159 -313 444 -537 775 -609 47 -10 119 -21 160 -25 100 -9 293
11 399 41 172 49 369 163 475 274 47 49 56 64 56 95 0 29 -8 45 -35 72 -41 41
-53 41 -194 3 -72 -19 -102 -22 -195 -17 -226 10 -405 106 -534 285 -40 57
-101 187 -102 220 0 8 20 2 58 -16 178 -90 399 -130 612 -111 282 24 529 137
725 334 177 176 301 417 331 645 10 76 -31 129 -99 130 -52 0 -70 -12 -118
-78 -81 -110 -154 -174 -265 -229 -203 -102 -476 -85 -665 40 -77 51 -161 136
-204 207 l-37 61 40 107 c121 321 193 676 193 945 -1 639 -448 1198 -1078
1346 -79 18 -287 43 -338 40 -11 -1 -61 -5 -112 -10z m-178 -2109 c141 -68 92
-284 -65 -284 -155 0 -207 209 -70 281 53 28 82 29 135 3z m728 6 c67 -27 108
-105 92 -175 -9 -44 -63 -97 -110 -110 -80 -22 -163 25 -184 105 -33 121 87
228 202 180z"/>
</g>
</svg>
