<svg id="svg" xmlns="http://www.w3.org/2000/svg" xmlns:xlink="http://www.w3.org/1999/xlink" width="400" height="106.33333333333333" viewBox="0, 0, 400,106.33333333333333"><g id="svgg"><path id="path0" d="M13.817 1.161 C 12.467 2.593,13.110 -0.797,7.996 31.833 C 3.170 62.627,2.800 64.977,2.330 67.833 C -1.089 88.621,-1.893 86.667,10.078 86.667 C 22.249 86.667,21.168 87.859,23.679 71.667 L 25.462 60.167 26.538 59.130 C 27.974 57.748,28.558 57.667,37.125 57.665 C 48.996 57.663,55.137 56.212,61.667 51.866 C 74.785 43.135,79.881 17.312,70.431 7.460 C 64.003 0.757,60.307 0.003,33.873 0.001 L 14.912 -0.000 13.817 1.161 M236.677 0.417 C 234.814 1.380,234.596 2.168,232.531 15.353 C 231.456 22.217,230.070 31.058,229.450 35.000 C 228.830 38.942,228.100 43.592,227.828 45.333 C 226.878 51.413,226.375 54.596,224.177 68.427 C 221.533 85.067,221.553 84.816,222.780 85.872 L 223.704 86.667 232.640 86.667 C 241.110 86.667,241.622 86.631,242.435 85.991 C 243.555 85.111,243.377 85.893,245.484 72.582 C 248.027 56.514,246.735 57.910,259.318 57.626 C 269.238 57.402,271.242 57.160,275.833 55.629 C 286.082 52.213,292.789 44.633,295.665 33.218 C 300.142 15.448,295.152 4.714,280.667 0.956 C 277.166 0.047,238.312 -0.428,236.677 0.417 M381.024 0.878 C 380.644 1.361,380.333 1.866,380.333 1.999 C 380.333 2.132,379.668 6.499,378.856 11.704 C 374.773 37.855,373.955 43.068,373.499 45.833 C 373.039 48.623,371.794 56.560,368.757 76.067 C 367.427 84.605,367.448 85.450,369.006 86.238 C 370.372 86.929,383.727 86.828,385.229 86.115 C 387.306 85.129,387.329 85.021,392.339 53.000 C 394.905 36.592,397.222 21.817,397.486 20.167 C 397.750 18.517,398.214 15.592,398.515 13.667 C 398.817 11.742,399.274 8.910,399.532 7.373 C 400.805 -0.225,401.088 0.000,390.248 -0.000 L 381.715 -0.000 381.024 0.878 M42.521 17.663 C 50.132 18.465,52.825 22.313,51.187 30.044 C 50.010 35.594,47.048 38.569,41.666 39.604 C 39.289 40.062,28.666 40.478,28.669 40.113 C 28.683 38.624,32.099 18.782,32.405 18.414 C 33.334 17.294,36.669 17.047,42.521 17.663 M264.675 17.676 C 271.712 18.530,274.310 21.764,273.404 28.539 C 272.541 34.983,269.278 38.633,263.500 39.613 C 259.890 40.225,250.667 40.467,250.667 39.949 C 250.667 39.702,250.954 37.700,251.304 35.500 C 251.655 33.300,252.264 29.400,252.657 26.833 C 254.145 17.111,254.002 17.333,258.804 17.333 C 260.480 17.333,263.122 17.488,264.675 17.676 M99.333 27.541 C 77.090 31.822,63.978 56.077,73.364 75.576 C 80.059 89.487,101.431 92.440,114.211 81.222 C 115.011 80.519,115.666 79.994,115.665 80.055 C 115.664 80.116,115.522 81.029,115.349 82.084 C 114.642 86.401,115.183 86.667,124.693 86.667 C 132.891 86.667,133.774 86.490,134.919 84.622 C 135.597 83.513,143.667 34.256,143.667 31.221 C 143.667 28.805,143.116 28.667,133.504 28.667 C 123.518 28.667,123.612 28.634,123.200 32.271 C 123.013 33.925,122.333 35.293,122.333 34.016 C 122.333 33.410,119.197 30.609,117.631 29.815 C 113.928 27.939,103.803 26.680,99.333 27.541 M321.833 27.542 C 321.467 27.614,320.342 27.833,319.333 28.029 C 289.770 33.768,281.944 79.271,309.182 87.056 C 318.173 89.626,329.840 86.936,336.790 80.693 C 337.638 79.931,337.725 79.909,337.564 80.500 C 336.718 83.600,337.057 85.615,338.538 86.290 C 339.988 86.951,353.903 86.764,355.333 86.065 C 357.354 85.077,357.413 84.813,361.670 57.667 C 366.130 29.228,365.974 30.610,364.848 29.485 L 364.030 28.667 355.500 28.667 C 345.509 28.667,345.623 28.629,345.189 32.100 C 344.897 34.438,344.685 34.585,343.695 33.139 C 340.873 29.022,329.329 26.066,321.833 27.542 M151.734 29.343 C 150.215 30.757,149.602 28.489,158.805 55.500 C 161.116 62.283,163.988 70.702,165.188 74.209 L 167.369 80.585 161.268 89.209 C 157.912 93.952,154.900 98.208,154.574 98.667 C 151.819 102.538,151.292 103.525,151.479 104.468 C 151.857 106.376,151.616 106.333,162.018 106.333 L 171.622 106.333 172.762 104.917 C 173.389 104.138,174.929 102.000,176.183 100.167 C 178.637 96.579,180.334 94.121,185.846 86.167 C 186.608 85.067,187.958 83.117,188.846 81.833 C 189.733 80.550,191.084 78.600,191.847 77.500 C 229.936 22.598,227.331 28.666,212.812 28.668 C 202.649 28.669,202.977 28.571,200.426 32.396 C 199.533 33.737,197.164 37.233,195.163 40.167 C 189.639 48.264,184.433 55.930,182.888 58.243 C 182.124 59.385,181.416 60.323,181.313 60.326 C 181.210 60.330,179.139 53.699,176.711 45.590 C 172.307 30.880,171.967 30.012,170.267 29.133 C 168.634 28.288,152.671 28.469,151.734 29.343 M113.059 44.322 C 123.393 48.188,122.166 64.902,111.171 70.047 C 100.494 75.043,90.158 69.359,91.119 59.018 C 92.146 47.971,103.136 40.609,113.059 44.322 M333.452 43.859 C 348.015 47.596,343.491 69.234,327.633 71.695 C 317.281 73.301,310.361 64.746,313.929 54.752 C 316.862 46.536,325.375 41.786,333.452 43.859 " stroke="none" fill="#000000" fill-rule="evenodd"></path></g></svg>