<?xml version="1.0" standalone="no"?>
<!DOCTYPE svg PUBLIC "-//W3C//DTD SVG 20010904//EN"
 "http://www.w3.org/TR/2001/REC-SVG-20010904/DTD/svg10.dtd">
<svg version="1.0" xmlns="http://www.w3.org/2000/svg"
 width="512.000000pt" height="512.000000pt" viewBox="0 0 512.000000 512.000000"
 preserveAspectRatio="xMidYMid meet">

<g transform="translate(0.000000,512.000000) scale(0.100000,-0.100000)"
fill="#000000" stroke="none">
<path d="M2315 5109 c-800 -83 -1501 -518 -1927 -1196 -487 -774 -516 -1777
-75 -2578 117 -213 253 -395 430 -573 211 -214 421 -365 692 -498 260 -127
509 -203 810 -246 119 -17 512 -16 635 1 622 86 1148 360 1572 820 349 378
572 861 650 1406 17 118 17 512 0 630 -71 496 -263 944 -557 1300 -418 506
-982 825 -1630 921 -123 18 -478 26 -600 13z m1115 -1528 c208 -15 271 -34
348 -106 71 -65 106 -136 132 -268 52 -257 54 -1002 4 -1277 -45 -245 -154
-356 -374 -379 -370 -40 -1641 -40 -1945 0 -239 30 -337 124 -385 362 -53 266
-53 1028 0 1294 26 131 61 203 132 268 94 87 147 97 638 119 167 7 1306 -3
1450 -13z"/>
<path d="M2210 2560 c0 -287 3 -519 8 -517 86 48 852 512 852 517 0 5 -766
469 -852 517 -5 2 -8 -230 -8 -517z"/>
</g>
</svg>
