<?xml version="1.0" standalone="no"?>
<!DOCTYPE svg PUBLIC "-//W3C//DTD SVG 20010904//EN"
 "http://www.w3.org/TR/2001/REC-SVG-20010904/DTD/svg10.dtd">
<svg version="1.0" xmlns="http://www.w3.org/2000/svg"
 width="512.000000pt" height="512.000000pt" viewBox="0 0 512.000000 512.000000"
 preserveAspectRatio="xMidYMid meet">

<g transform="translate(0.000000,512.000000) scale(0.100000,-0.100000)"
fill="#000000" stroke="none">
<path d="M2505 5106 c-43 -19 -75 -58 -86 -103 -5 -21 -9 -311 -9 -645 l0
-608 -22 -4 c-80 -17 -140 -27 -144 -24 -2 2 -67 159 -144 348 -77 189 -148
353 -158 363 -62 69 -187 60 -237 -17 -9 -14 -19 -43 -22 -64 -6 -41 3 -64
210 -569 l75 -183 -70 -46 -70 -47 -441 440 c-243 243 -453 446 -465 453 -35
18 -108 14 -144 -7 -18 -10 -41 -33 -51 -51 -21 -36 -25 -109 -7 -144 7 -12
210 -222 453 -465 l440 -442 -43 -65 c-23 -36 -45 -66 -47 -66 -3 0 -156 63
-340 140 -184 78 -347 143 -363 146 -93 19 -187 -86 -165 -186 14 -64 51 -86
410 -235 187 -78 340 -146 340 -151 -1 -5 -7 -44 -15 -86 l-14 -78 -628 0
c-610 0 -630 -1 -668 -20 -45 -23 -80 -80 -80 -130 0 -50 35 -107 80 -130 38
-19 58 -20 668 -20 l628 0 13 -78 c7 -42 12 -79 11 -82 -1 -3 -158 -69 -348
-147 -245 -100 -354 -150 -369 -168 -60 -68 -45 -180 30 -225 63 -39 98 -30
417 101 162 67 316 129 342 140 l48 19 45 -69 c25 -37 45 -72 45 -77 0 -5
-196 -205 -436 -444 -239 -239 -442 -447 -450 -462 -32 -61 -3 -156 57 -192
34 -20 106 -23 141 -6 12 7 222 210 464 452 l442 441 66 -44 c36 -24 66 -48
66 -54 0 -6 -63 -161 -140 -344 -151 -361 -159 -392 -121 -455 11 -17 34 -39
51 -49 60 -36 160 -17 194 36 8 12 78 172 154 355 77 183 142 336 145 339 5 4
58 -4 144 -22 l22 -5 3 -634 c3 -623 3 -635 24 -662 70 -94 190 -96 251 -5
l23 34 0 633 0 633 38 7 c20 3 61 12 90 19 48 12 54 12 59 -3 51 -137 289
-682 306 -700 27 -30 76 -52 114 -52 70 1 143 77 143 149 0 21 -55 166 -146
383 -80 192 -145 351 -143 353 2 2 31 21 64 44 l60 40 440 -439 c242 -241 453
-444 468 -449 127 -48 244 69 196 196 -5 15 -208 226 -449 468 l-440 440 45
64 c24 35 46 68 47 73 2 5 164 -56 360 -136 196 -80 367 -146 380 -146 41 0
110 42 130 80 35 67 15 156 -44 194 -13 8 -162 72 -333 141 -170 70 -324 133
-341 140 l-31 13 15 81 16 81 623 0 c605 0 625 1 663 20 45 23 80 80 80 130 0
50 -35 107 -80 130 -38 19 -58 20 -663 20 l-623 0 -16 83 c-9 45 -15 82 -14
83 0 0 154 64 340 142 187 78 350 149 362 157 79 52 72 193 -12 246 -62 38
-93 30 -463 -125 l-343 -144 -49 72 -48 71 438 440 c242 242 444 451 451 463
17 35 14 107 -6 141 -34 58 -130 89 -187 60 -12 -6 -221 -209 -464 -452 l-442
-440 -58 38 c-32 22 -62 42 -66 46 -5 4 53 157 128 340 76 184 141 349 145
367 18 74 -40 164 -114 178 -48 8 -105 -8 -135 -40 -17 -18 -227 -509 -303
-708 -6 -15 -12 -15 -60 -3 -29 7 -70 16 -90 19 l-38 7 0 633 0 633 -23 34
c-40 61 -117 84 -182 55z m-166 -2093 c64 -48 66 -58 66 -258 0 -170 -2 -186
-21 -211 -37 -50 -72 -69 -124 -69 -55 0 -91 21 -127 75 -22 31 -23 43 -23
203 0 155 2 172 22 208 41 74 143 99 207 52z m586 7 c26 -13 49 -34 63 -59 20
-36 22 -52 22 -208 0 -160 -1 -172 -22 -203 -37 -54 -73 -75 -128 -75 -52 0
-87 19 -124 69 -19 24 -21 44 -24 184 -4 183 0 211 35 253 50 59 110 72 178
39z"/>
</g>
</svg>
