<?xml version="1.0" encoding="utf-8"?>
<!-- Generator: Adobe Illustrator 24.0.1, SVG Export Plug-In . SVG Version: 6.00 Build 0)  -->
<svg version="1.1" id="svg" xmlns="http://www.w3.org/2000/svg" xmlns:xlink="http://www.w3.org/1999/xlink" x="0px" y="0px"
	 viewBox="0 0 400 400" style="enable-background:new 0 0 400 400;" xml:space="preserve">
<style type="text/css">
	.st0{fill-rule:evenodd;clip-rule:evenodd;fill:#A10E15;}
</style>
<g id="svgg">
	<path id="path0" class="st0" d="M104.3,32.8c-4.4,2.1-70.2,68.1-71.8,72.1c-1.5,3.7-1.5,11.6,0,15.3c1.7,4,67.5,70.1,71.8,72.1
		c12.6,5.9,26.9-3.1,26.9-17.1c0-7.9-0.9-9.3-19-27.3l-16.6-16.6h104.5c115.4,0,107.4,0.3,113-4.9c7.6-7.2,7.6-20.5,0-27.7
		c-5.6-5.3,2.4-4.9-113-4.9H95.7l16.6-16.6c18-18.1,19-19.4,19-27.3C131.2,35.9,116.9,26.8,104.3,32.8 M279.3,207.7
		c-6.7,3.1-10.5,9.4-10.5,17.3c0,7.7,1,9.2,19,27.1l16.6,16.6l-104.7,0c-100.3,0-104.8,0.1-107.8,1.5c-11.4,5.3-14.3,21.3-5.6,30.4
		c5.7,6-3.8,5.5,113.4,5.6l104.7,0l-16.6,16.6c-18,18.1-19,19.4-19,27.3c0,13.9,14.3,23,26.9,17.1c4.4-2.1,70.2-68.1,71.8-72.1
		c1.5-3.7,1.5-11.6,0-15.3c-1.7-4-67.5-70.1-71.8-72.1C291.5,205.8,283.5,205.8,279.3,207.7"/>
</g>
</svg>
