<?xml version="1.0" encoding="utf-8"?>
<!-- Generator: Adobe Illustrator 24.0.1, SVG Export Plug-In . SVG Version: 6.00 Build 0)  -->
<svg version="1.1" id="Layer_1" xmlns="http://www.w3.org/2000/svg" xmlns:xlink="http://www.w3.org/1999/xlink" x="0px" y="0px"
	 viewBox="0 0 256.05 230.69" style="enable-background:new 0 0 256.05 230.69;" xml:space="preserve">
<style type="text/css">
	.st0{fill:#FAA41A;}
	.st1{display:none;fill:#FAA41A;}
	.st2{fill:#FFFFFF;}
</style>
<g>
	<g>
		<path class="st0" d="M107.78,0c0,16.82-13.64,30.45-30.45,30.45h-4.51v95.17H42.36V30.45H11.21V0H107.78z"/>
		<path class="st1" d="M155.29,79.94h-12.77v45.68h-30.45V0h49.49C178.36,0,192,13.64,192,30.45v19.03c0,8.72-3.68,16.56-9.55,22.11
			l23.15,54.02h-31.15L155.29,79.94z M142.51,49.49h19.03V30.45h-19.03V49.49z"/>
		<path class="st1" d="M298.85,30.45v95.17h-30.45V79.94h-26.65v45.68h-30.45V0h57.1C285.21,0,298.85,13.64,298.85,30.45z
			 M268.39,49.49V30.45h-26.65v19.03H268.39z"/>
		<path class="st1" d="M398.08,0v125.62h-30.45L340.98,67v58.62h-30.45V0c18.55,0,35.38,10.84,43.05,27.72l14.05,30.9V0H398.08z"/>
	</g>
	<path class="st0" d="M182.48,34.06"/>
	<ellipse class="st0" cx="57.2" cy="202.84" rx="30.33" ry="27.85"/>
	<ellipse class="st0" cx="182.48" cy="202.84" rx="30.33" ry="27.85"/>
	<path class="st2" d="M146.86,144.47L0,144.47v46.11h25.45c5.21-11.38,17.47-19.36,31.75-19.36c14.29,0,26.54,7.99,31.75,19.36
		h57.91V144.47z"/>
	<path class="st2" d="M169.56,46.43l86.49,0.12c0-46.24,0-46.24-86.49-46.24c-43.18,0-46.13,20.65-46.13,46.13v28.83
		c0,25.47,20.65,46.13,46.13,46.13h40.36v23.06l-80.06,0v46.12h20.86c5.21-11.38,17.47-19.36,31.75-19.36
		c14.2,0,26.39,7.89,31.66,19.16c23.5-2.13,41.91-21.88,41.91-45.93V75.26h-86.49V46.43z"/>
</g>
<g>
</g>
<g>
</g>
<g>
</g>
<g>
</g>
<g>
</g>
<g>
</g>
<g>
</g>
<g>
</g>
<g>
</g>
<g>
</g>
<g>
</g>
<g>
</g>
<g>
</g>
<g>
</g>
<g>
</g>
</svg>
