<?xml version="1.0" encoding="utf-8"?>
<!-- Generator: Adobe Illustrator 27.0.0, SVG Export Plug-In . SVG Version: 6.00 Build 0)  -->
<svg version="1.1" id="Layer_1" xmlns="http://www.w3.org/2000/svg" xmlns:xlink="http://www.w3.org/1999/xlink" x="0px" y="0px"
	 viewBox="0 0 1130.9 272.93" style="enable-background:new 0 0 1130.9 272.93;" xml:space="preserve">
<style type="text/css">
	.st0{fill:#FFFFFF;}
	.st1{fill:#FAA41A;}
</style>
<g>
	<g>
		<path class="st0" d="M449.15,73.34l86.49,0.12c0-46.24,0-46.24-86.49-46.24c-43.18,0-46.13,20.65-46.13,46.13v28.83
			c0,25.47,20.65,46.13,46.13,46.13h40.36v23.06l-470.92,0.02v46.11h25.45c5.21-11.38,17.47-19.36,31.75-19.36
			c14.29,0,26.54,7.99,31.75,19.36h322.77c5.21-11.38,17.47-19.36,31.75-19.36c14.2,0,26.39,7.89,31.66,19.16
			c23.5-2.13,41.91-21.88,41.91-45.93v-69.19h-86.49V73.34z"/>
		<path class="st0" d="M684.59,27.22v144.15c0,25.47-20.65,46.13-46.13,46.13H598.1c-25.47,0-46.13-20.65-46.13-46.13V27.22h46.13
			v144.15h40.36V27.22H684.59z"/>
		<path class="st0" d="M763.53,102.62h74.96v68.75c0,25.47-20.65,46.13-46.13,46.13h-46.13c-25.47,0-46.13-20.65-46.13-46.13V73.34
			c0-25.47,20.65-46.13,46.13-46.13h46.13c25.47,0,46.13,20.65,46.13,46.13h-92.25v98.02h46.13v-22.62h-28.83V102.62z"/>
		<path class="st0" d="M987.11,148.3v23.06c0,25.47-20.65,46.13-46.13,46.13h-86.49V27.22h74.96c25.47,0,46.13,20.65,46.13,46.13
			v23.06c0,6.32-1.27,12.34-3.58,17.82C981.26,122.67,987.11,134.79,987.11,148.3z M900.62,102.17h28.83V73.34h-28.83V102.17z
			 M940.98,171.36V148.3h-40.36v23.06H940.98z"/>
		<path class="st0" d="M1130.9,73.34v98.02c0,25.47-20.65,46.13-46.13,46.13h-40.36c-25.47,0-46.13-20.65-46.13-46.13V73.34
			c0-25.47,20.65-46.13,46.13-46.13h40.36C1110.25,27.22,1130.9,47.87,1130.9,73.34z M1084.77,171.36V73.34h-40.36v98.02H1084.77z"
			/>
	</g>
	<g>
		<path class="st1" d="M98.37,26.91c0,16.82-13.64,30.45-30.45,30.45H63.4v95.17H32.94V57.37H1.79V26.91H98.37z"/>
		<path class="st1" d="M145.87,106.85H133.1v45.68h-30.45V26.91h49.49c16.82,0,30.45,13.64,30.45,30.45V76.4
			c0,8.72-3.68,16.56-9.55,22.11l23.15,54.02h-31.15L145.87,106.85z M133.1,76.4h19.03V57.36H133.1V76.4z"/>
		<path class="st1" d="M289.43,57.36v95.17h-30.45v-45.68h-26.65v45.68h-30.45V26.91h57.1C275.8,26.91,289.43,40.55,289.43,57.36z
			 M258.98,76.4V57.36h-26.65V76.4H258.98z"/>
		<path class="st1" d="M388.67,26.91v125.62h-30.45l-26.65-58.62v58.62h-30.45V26.91c18.55,0,35.38,10.84,43.05,27.72l14.05,30.9
			V26.91H388.67z"/>
	</g>
	<g>
		<path class="st1" d="M627.62,244.4v14.71c0,3.82-3.1,6.92-6.92,6.92h-12.98v-28.56h12.98
			C624.52,237.47,627.62,240.57,627.62,244.4z M620.69,259.11V244.4h-6.06v14.71H620.69z"/>
		<path class="st1" d="M654.14,244.4v21.64h-6.92v-10.39h-6.06v10.39h-6.92v-28.56h12.98C651.04,237.47,654.14,240.57,654.14,244.4z
			 M647.21,248.73v-4.33h-6.06v4.33H647.21z"/>
		<path class="st1" d="M678.02,259.11v6.92h-17.27V244.4c0-3.82,3.1-6.92,6.92-6.92v21.64H678.02z"/>
		<path class="st1" d="M703.34,244.4v21.64h-6.92v-10.39h-6.06v10.39h-6.92v-28.56h12.98C700.24,237.47,703.34,240.57,703.34,244.4z
			 M696.42,248.73v-4.33h-6.06v4.33H696.42z"/>
		<path class="st1" d="M730.02,237.47v28.56h-6.92l-6.06-13.33v13.33h-6.92v-28.56c4.22,0,8.04,2.46,9.79,6.3l3.19,7.03v-13.33
			H730.02z"/>
		<path class="st1" d="M773.35,237.47v9.09h-6.92v-2.16h-6.06v4.33h12.98v10.39c0,3.82-3.1,6.92-6.92,6.92h-12.98v-8.66h6.92v1.73
			h6.06v-3.46h-6.06c-3.82,0-6.92-3.1-6.92-6.92v-4.33c0-3.82,3.1-6.92,6.92-6.92H773.35z"/>
		<path class="st1" d="M800,244.4v21.64h-6.92v-10.39h-6.06v10.39h-6.92v-28.56h12.98C796.9,237.47,800,240.57,800,244.4z
			 M793.07,248.73v-4.33h-6.06v4.33H793.07z"/>
		<path class="st0" d="M850.1,266.03l-4.38,0.05c-3.41,0.02-6.69-1.33-9.09-3.75l-5.7-7.67l-0.39,0.43v10.93h-6.92v-9.91l-0.07-3.14
			l0.07-0.08v-15.43h6.92v7.31l6.22-7.3l5.33,0.04l4.39,0.03l-10.83,11.93L850.1,266.03z"/>
		<path class="st0" d="M875.11,244.4v21.64h-6.92v-10.39h-6.06v10.39h-6.92v-28.56h12.98C872.01,237.47,875.11,240.57,875.11,244.4z
			 M868.18,248.73v-4.33h-6.06v4.33H868.18z"/>
		<path class="st0" d="M899,259.11v6.92h-17.27V244.4c0-3.82,3.1-6.92,6.92-6.92v21.64H899z"/>
		<path class="st0" d="M924.31,244.4v21.64h-6.92v-10.39h-6.06v10.39h-6.92v-28.56h12.98C921.21,237.47,924.31,240.57,924.31,244.4z
			 M917.39,248.73v-4.33h-6.06v4.33H917.39z"/>
		<path class="st0" d="M957.05,237.47v28.56h-6.92v-7.79l-2.6,7.79h-6.92l-2.6-7.79v7.79h-6.92v-28.56h0.61
			c0.91,0,1.77,0.2,2.55,0.54c2.75,0.96,4.99,3.15,5.95,6.03l3.87,11.61l6.06-18.18H957.05z"/>
		<path class="st0" d="M983.92,255.65v3.46c0,3.82-3.1,6.92-6.92,6.92h-12.98v-28.56h11.25c3.82,0,6.92,3.1,6.92,6.92v3.46
			c0,0.95-0.19,1.85-0.54,2.68C983.04,251.8,983.92,253.62,983.92,255.65z M970.94,248.73h4.33v-4.33h-4.33V248.73z M977,259.11
			v-3.46h-6.06v3.46H977z"/>
		<path class="st0" d="M1009.79,237.47v21.64c0,3.82-3.1,6.92-6.92,6.92h-6.06c-3.82,0-6.92-3.1-6.92-6.92v-21.64h6.92v21.64h6.06
			v-21.64H1009.79z"/>
		<path class="st0" d="M1036.47,244.4v21.64h-6.92v-10.39h-6.06v10.39h-6.92v-28.56h12.98
			C1033.37,237.47,1036.47,240.57,1036.47,244.4z M1029.55,248.73v-4.33h-6.06v4.33H1029.55z"/>
		<path class="st0" d="M1063.16,237.47v28.56h-6.92l-6.06-13.33v13.33h-6.92v-28.56c4.22,0,8.04,2.46,9.79,6.3l3.19,7.03v-13.33
			H1063.16z"/>
	</g>
	<ellipse class="st1" cx="75.79" cy="229.75" rx="30.33" ry="27.85"/>
	<ellipse class="st1" cx="462.06" cy="229.75" rx="30.33" ry="27.85"/>
</g>
</svg>
