<svg id="svg" xmlns="http://www.w3.org/2000/svg" xmlns:xlink="http://www.w3.org/1999/xlink" width="400" height="400" viewBox="0, 0, 400,400"><g id="svgg"><path id="path0" d="M185.156 75.473 C 121.693 81.119,66.118 110.073,23.359 159.769 C -4.495 192.140,-6.349 201.467,10.547 224.219 C 109.662 357.687,288.343 358.323,388.375 225.563 C 407.323 200.416,404.786 190.439,369.662 151.976 C 322.424 100.247,248.983 69.795,185.156 75.473 M214.155 117.553 C 275.832 128.354,304.236 200.452,266.528 250.494 C 229.484 299.656,153.074 292.663,125.435 237.582 C 94.772 176.476,147.016 105.795,214.155 117.553 M187.500 146.524 C 146.270 155.354,131.128 208.584,161.272 238.728 C 187.507 264.962,232.477 257.894,248.723 224.983 C 269.496 182.902,233.434 136.687,187.500 146.524 " stroke="none" fill="#000000" fill-rule="evenodd"></path></g></svg>