<svg id="svg" xmlns="http://www.w3.org/2000/svg" xmlns:xlink="http://www.w3.org/1999/xlink" width="400" height="129.33333333333331" viewBox="0, 0, 400,129.33333333333331"><g id="svgg"><path id="path0" d="M248.667 0.681 C 222.276 4.908,205.632 21.750,206.785 43.062 C 207.479 55.885,215.939 65.947,233.377 74.689 C 247.482 81.759,251.556 85.390,251.556 90.892 C 251.556 103.732,226.553 106.817,203.649 96.804 C 201.378 95.811,199.406 95.112,199.268 95.251 C 199.129 95.389,197.726 101.559,196.149 108.960 C 192.818 124.592,192.496 122.856,199.111 124.903 C 218.741 130.976,243.295 130.679,259.037 124.177 C 276.850 116.821,286.275 103.026,285.685 85.174 C 285.205 70.654,278.826 63.035,257.522 51.539 C 244.499 44.511,241.452 42.018,241.001 38.024 C 239.677 26.270,262.383 22.503,282.998 31.056 L 286.218 32.392 286.445 31.418 C 288.508 22.564,291.910 5.512,291.662 5.271 C 291.102 4.728,282.442 2.299,277.434 1.281 C 271.227 0.019,254.921 -0.321,248.667 0.681 M0.280 3.222 C -0.452 5.952,-0.411 5.985,5.667 7.533 C 24.426 12.314,35.168 17.417,37.651 22.730 C 38.356 24.237,52.977 79.976,63.722 122.116 L 65.111 127.565 82.443 127.449 L 99.774 127.333 125.870 65.111 C 140.223 30.889,151.974 2.739,151.983 2.556 C 151.992 2.372,144.250 2.227,134.778 2.233 L 117.556 2.244 101.111 43.999 C 92.067 66.963,84.567 85.757,84.444 85.763 C 84.322 85.769,81.157 69.424,77.411 49.442 C 69.964 9.724,70.013 9.915,66.248 6.247 C 61.948 2.059,63.424 2.222,29.813 2.222 L 0.548 2.222 0.280 3.222 M152.265 64.111 C 144.996 98.150,138.949 126.350,138.828 126.778 C 138.620 127.508,139.601 127.556,155.033 127.556 L 171.459 127.556 171.707 126.556 C 172.148 124.780,198.222 2.782,198.222 2.497 C 198.222 2.346,190.855 2.222,181.852 2.222 L 165.481 2.222 152.265 64.111 M341.775 2.637 C 338.305 3.693,334.685 6.671,333.122 9.757 C 331.703 12.556,284.000 126.494,284.000 127.083 C 284.000 127.409,289.297 127.556,301.057 127.556 L 318.114 127.556 318.601 126.333 C 318.868 125.661,320.275 121.811,321.727 117.778 C 323.179 113.744,324.505 110.094,324.675 109.667 C 324.963 108.942,326.375 108.889,345.499 108.889 L 366.015 108.889 367.045 113.889 C 367.611 116.639,368.485 120.839,368.987 123.222 L 369.900 127.556 384.950 127.556 C 398.993 127.556,400.000 127.503,400.000 126.777 C 400.000 126.349,394.200 98.220,387.111 64.268 C 380.022 30.317,374.222 2.467,374.222 2.380 C 374.222 2.061,342.852 2.310,341.775 2.637 M355.776 59.990 C 358.343 72.290,360.444 82.425,360.444 82.510 C 360.444 82.596,354.644 82.667,347.556 82.667 C 340.467 82.667,334.667 82.523,334.667 82.348 C 334.667 81.838,350.847 37.366,350.984 37.502 C 351.051 37.570,353.208 47.689,355.776 59.990 " stroke="none" fill="#000000" fill-rule="evenodd"></path></g></svg>